/* XPM */
static char *_1708947972[] = {
/* columns rows colors chars-per-pixel */
"64 64 251 2 ",
"   c #040101",
".  c #0A0402",
"X  c #0D0A05",
"o  c #070609",
"O  c #0D0C0B",
"+  c #120C03",
"@  c #110509",
"#  c #130E0B",
"$  c #13120D",
"%  c #1B140B",
"&  c #131112",
"*  c #141312",
"=  c #1A1513",
"-  c #1B1B15",
";  c #151818",
":  c #1D1C1B",
">  c #201709",
",  c #221C15",
"<  c #25171A",
"1  c #221D1C",
"2  c #1E2219",
"3  c #272719",
"4  c #23221C",
"5  c #2B231B",
"6  c #302913",
"7  c #342A1B",
"8  c #1D1F21",
"9  c #241E21",
"0  c #252423",
"q  c #2A2623",
"w  c #2B2B24",
"e  c #262729",
"r  c #2D2C2B",
"t  c #352B25",
"y  c #322D2B",
"u  c #2D312D",
"i  c #32322E",
"p  c #393428",
"a  c #2B2C31",
"s  c #312F30",
"d  c #2D3435",
"f  c #353532",
"g  c #393533",
"h  c #373934",
"j  c #3B3A35",
"k  c #34383B",
"l  c #3C3C3A",
"z  c #453728",
"x  c #443B2B",
"c  c #443D36",
"v  c #503F34",
"b  c #3D423C",
"n  c #4A4335",
"m  c #43423D",
"M  c #4C443C",
"N  c #534A35",
"B  c #56493A",
"V  c #64583E",
"C  c #383A44",
"Z  c #443C41",
"A  c #3B4246",
"S  c #3E4B5B",
"D  c #434443",
"F  c #4C4A45",
"G  c #454849",
"H  c #4C4C4B",
"J  c #554A43",
"K  c #534E4D",
"L  c #4B534D",
"P  c #52524D",
"I  c #5B5449",
"U  c #454A56",
"Y  c #524C57",
"T  c #4B5357",
"R  c #535452",
"E  c #595857",
"W  c #66594A",
"Q  c #705F4B",
"!  c #645B52",
"~  c #675E58",
"^  c #5C615A",
"/  c #6C624B",
"(  c #71624F",
")  c #6C6355",
"_  c #69635A",
"`  c #726453",
"'  c #766A58",
"]  c #7B6C5B",
"[  c #79715A",
"{  c #7D715C",
"}  c #484C68",
"|  c #4A5666",
" . c #535C63",
".. c #585A66",
"X. c #525C6B",
"o. c #575B76",
"O. c #615E68",
"+. c #586469",
"@. c #586677",
"#. c #5B6A74",
"$. c #5E707C",
"%. c #6B6663",
"&. c #696968",
"*. c #756D65",
"=. c #6C706E",
"-. c #7C7363",
";. c #73716D",
":. c #7A7668",
">. c #7B746C",
",. c #636A72",
"<. c #666978",
"1. c #697476",
"2. c #64727C",
"3. c #6B747C",
"4. c #797777",
"5. c #81705D",
"6. c #837563",
"7. c #857968",
"8. c #847B6A",
"9. c #8B7D6C",
"0. c #847C73",
"q. c #857C78",
"w. c #7A827F",
"e. c #89826C",
"r. c #92866C",
"t. c #8C8372",
"y. c #898679",
"u. c #8C857B",
"i. c #918373",
"p. c #938B75",
"a. c #97897B",
"s. c #948B7A",
"d. c #9C927B",
"f. c #A0917F",
"g. c #575E81",
"h. c #5D6685",
"j. c #5D7287",
"k. c #666C85",
"l. c #647383",
"z. c #6A7484",
"x. c #6B7889",
"c. c #747A87",
"v. c #6D7595",
"b. c #757B97",
"n. c #737BA5",
"m. c #827F88",
"M. c #7A838B",
"N. c #6F8090",
"B. c #778695",
"V. c #7A8B9B",
"C. c #7B87A6",
"Z. c #7D93B0",
"A. c #888686",
"S. c #8C8B8B",
"D. c #948C83",
"F. c #9A8C85",
"G. c #928D8C",
"H. c #908F8E",
"J. c #9D9384",
"K. c #97958A",
"L. c #9C948B",
"P. c #868997",
"I. c #8A929A",
"U. c #9B9492",
"Y. c #989898",
"T. c #A89587",
"R. c #A59788",
"E. c #A39B8B",
"W. c #A49D93",
"Q. c #A99B96",
"!. c #A49D9A",
"~. c #9FA196",
"^. c #AAA18B",
"/. c #ACA494",
"(. c #A8A598",
"). c #ABA49C",
"_. c #B5A699",
"`. c #B3AB9E",
"'. c #B5B496",
"]. c #868CA3",
"[. c #8592A4",
"{. c #8894A8",
"}. c #979AA6",
"|. c #8691B4",
" X c #979CB8",
".X c #A29FB1",
"XX c #9BA3AC",
"oX c #9CA4B4",
"OX c #98A7B8",
"+X c #9CA4BC",
"@X c #A8A6A6",
"#X c #ADAAA3",
"$X c #B4ABA3",
"%X c #B6ADA7",
"&X c #B7B3A7",
"*X c #B5B3AD",
"=X c #BBB2AB",
"-X c #A5A9B5",
";X c #AEB2B3",
":X c #BAB5B2",
">X c #B7B9B7",
",X c #BCBBB4",
"<X c #C3B9AC",
"1X c #C2BBB4",
"2X c #C3BBB7",
"3X c #BEC1BD",
"4X c #C4C2BD",
"5X c #CBC3BB",
"6X c #CBC6BA",
"7X c #D1C9BC",
"8X c #DDD1B7",
"9X c #9AA0C1",
"0X c #AAAEC5",
"qX c #B8BCC8",
"wX c #C3BFC2",
"eX c #BBC1C8",
"rX c #BEC7D4",
"tX c #C5C3C3",
"yX c #CAC5C3",
"uX c #CDCBC3",
"iX c #C8C9CB",
"pX c #D5CCC7",
"aX c #D0CFCF",
"sX c #D3D2CC",
"dX c #D8D4C9",
"fX c #C8CDD2",
"gX c #CDD5D7",
"hX c #DBD6D2",
"jX c #DCDBD5",
"kX c #D9D7D8",
"lX c #E9DACA",
"zX c #E1DCD5",
"xX c #E2DCDB",
"cX c #DEE1D7",
"vX c #E6E3DC",
"bX c #F2EADF",
"nX c #CFD3E5",
"mX c #D8DBE4",
"MX c #E2DDE5",
"NX c #DDE2E9",
"BX c #DCE4F2",
"VX c #E4E3E3",
"CX c #E9E7E9",
"ZX c #F2EDE9",
"AX c #F6F3E9",
"SX c #E8EBF5",
"DX c #F3EDFA",
"FX c #EAF2F5",
"GX c #ECF4FD",
"HX c #F4F8FB",
"JX c #FDFDFD",
/* pixels */
"U.).@X@X#X#X*X&X$X$X$X=X$X`.$X`.$X%XAXE.!.@XY.(.@X(.t.'.%X%X%X&X;X$X$X_.&X2X2X=XG.).!.!.XXY.JX#X(././.$X#X@X(._./._.zX@X}.U.Y.U.",
"B.B.B.V.B.V.rXmXkXMXMXxXzXzXxXjXkXmXFX2.l.l.l.l.@.I.3XgXhXlXhXhXMXjXjXjXpXiXnXU o.X.X.X.&...DXhXdXdXsXsXsXsXpXgXgXgXqX| U } | | ",
"B.V.V.B.V.P.eXmXMXMXxXMXvXVXVXCXCXSXGXx.l.$.k.k.2.qXrXgXMXMXvXMXjXNXvXCXCXiXCX} | | X.X.+.2.DXxXjXjXjXjXzXjXMXmXNXCXgXU U U U S ",
"H H G H Y H E ^ &.;.;.,.=.<.....| T JXG Z G G Y Y G.s.M.m.P.P.P.A.A.L A H D tXG D G G A C C FX+.Y ,. .+... .k Z c G MXD u D G F ",
"I.}.}.}.Y.I.4.@X}.}.}.}.;XmXoX-X X-XFXA.P.S.P.P.P.-X-XiXc.b.b.c.c.CXB.x.l.c.SX,.c.c.4.c.M.3.JXG <.<.o.@.| SX<.O.@.X.mX+.1.3.3.3.",
"oX-XXXXXOX-X@XqX-X.X+X-X}.SX X X|.OXHXI.I.}.V.[.{.qXqXmXP.].C.].c.JXb.n.].b.DXx.3.N.N.M.3.P.CXo.o.k.@.@.| GX<.@.h.@.BXX.1.$.l.l.",
"XXOX0XOXOX-XXXeX0X+X+XoXoXSX X X9X XHXV.V.[.[.I.[.rXrXBXb.C.n.b.b.JXb.n.v.x.GXl.x.c.N.z.M.M.FXX.o.o.o.o.X.GX,.o.o.@.BX@.@.$.$.$.",
"XX+XOXOX-X-XXXeX-X+X+X XoXNX X9X9XXXHXV.V.[.[.V.V.rXqXBXn.C.n.B.N.HXv.n.v.x.GXz.x.x.N.N.N.S.FXX.o.g.o.@.| GX,.g.o.o.nX@.@.$.$.$.",
"OX+XOXOXXX-X;X0X X9X9X0X}.mX}. X9XP.GXV.V.P.V.V.V.gXfXSXC.n.n.|.x.GXk.k.v.<.HXk.z.x.x.z.l.V.HX| } h.o.o.o.GX@.o.o.,.NX#.#.@.@.$.",
"OX+X+X XOXXXoX0X9X9X X.XU.MX;X-X-X@XSXV.V.C.C.V.B.fXfXmXC.v.n.v.k.JXz.b.k.3.mX2.2.v.x.z.N.M.HX<.g.h.o.@.o.DXo.@...O.mX#.#.#.@.#.",
"OX9XOXOXXXXXG.@XU.U.T.U.U.$X).%X@X@XJXB.V.V.V.V.B.qXY.A.A.S.U.D.d.@X@X@X}.!.hX#.k.x.x.z.x.M.AX>.4.A.y.y.A.u.'.;X#X@XkX+.#.@.#.#.",
"9X+XOXOXOXXXR E ! ~ O.! _ _ ~ O._ P HXV.B.V.B.B.V.qXE J J B B I ! ! ! ! ) I Y.2.M.l.3.z.x.A.kXJ B J B I B B I B W J fXX.#.@.@.@.",
"OXOXOXOXOX X-XtXwXwXwXwXyXyX4XtXyXtXFXN.B.V.B.B.B.0X;X@X:X3X,X<X1X,X,X2X2X>XNXl.z.$.l.2.l.M.SX#X1X&X&X:X*X,X*X&X'.3XeX+.@.@.@.@.",
"OXOXOXOXOXOXXX>XyXpXaXiXiXiXiXaXiX4XFXN.N.V.B.B.B.eX;X@X:X3X3X3X3X3X,X1X2XqXCX@.$.l.l.2.$.V.SX*X3X,X;X>X;X3X3X*X;X3XrX| $.@.@.@.",
"XXOXOXOX}.}.@XwX4XyXwXyX2X5X2XyX2XqXHXM.B.N.B.M.B.eX@X,X:X,X,X,X,X3X,X:X:XY.JXT 3.3.1.3.#.1.hX!.(.`.$X*X*X*X#X3X3X'.sXL  .+.+.+.",
"A.G.I.[.}.}.q.!.W.Q.Q.W.!.!.!.!.L.@XJXM.P.P.Y.I.I.(.;.y.K.L.W.W.L.K.E./.(.!.*XS.A.I.H.I.S.A.VXs.G.K.K.K.K.~.K.~.#X~.bXV.V.L.M.B.",
"b i i h C g A.F.a.F.F.R.F.L.F.L.T.G.JXe e e e a e ;.>.y.y.e.0.0.F.F.q.q.D.y.(.- 8 e 9 1 * w JX>.:.8.8.:.6.*.{ >.8.>.tXo & ; 8 1 ",
"2.N.N.x.3.c.iXgXjXvXxXiXaXxXxXzXkXxXGXE  .T  .X.+.rX3X3XsXsXdXjXhXjXhXhXhXgXVXC G A A U A F hX6XuX6XuXaXdXhXpXhXjXjXfXd G A A C ",
"~.Y.Y.Y.Y.Y.:XjXzXvXvXNXVXMXCXMXMXZXJXK.K.A.A.P.S.;XY.vXjXjXvXjXzXkXDXCXMXVXCXA.A.A.u.q.M.s.JXdXaXkXkXVXgXfXkXkXmXxXiX4.4.4.c.c.",
"M.A.M.A.B.P.c.oX].P.V.M.P.nX}.|.|.P.DX..+.&.=.=.,.(.K.>X#.@.X.X.o.DXc.z.z.<.mX ...E ..E ..&.MX} } } U U U mXY | ..| fXH T R H P ",
"I.I.}.{.{.].P.0X X9X|. X{.mX{.|.|.].DX1.3.c.4.M.w.;X@XgXb.v.v.k.k.HXx.k.k.2.NX+.@.2.2.,.1.c.DXo.g.h.O.C <.BX| } | | rXT +.+.%.+.",
"Z.Z.I.I.S.Y.M.-X X X{.{.I.mX|.|.|.P.FX,.M.2.x.z.z.OXXXnXv.k.x.k.k.DXv.k.l.2.NX+.,.+.+.+.,.1.CXT o.o.K c ..mX..} } T rXT  . . .X.",
"I.[.{.Z.{.|.4.3.}.].|.].}.mX{.{.Z.].GX$.2.x.x.x.x.;X}.mX4.P.v.v.j.DXz.j.j.$.BX .| $.#.+.#.c.mX,.z...~ s ..BX..} S | rXT T | | X.",
"[.{.{.{.{.{.M.4.O.P.|.].{.nX[.|.Z.].GX2.2.x.z.z.z.;X@XMXf o k.h.l.JX$.x.j.+.NXT +. ...+.+.M.mXY +.,.>.c ..CXU m.c.,.eXU T  .+.T ",
"I.{.[.[.[.{.P.A.8 -X].].[.kX].].|.].HX2.2.l.3.3.3.-X@XsXM.o b.<.k.DXC o.B.<.SXY T #.#.#. .=.cX+.K s W Z &.CXo 7 q 8 eX| | T A D ",
"S A b S P.I.u.G.A.G.A.G.Y.U.A.@XI.Y.JXY d b d u b XXA.A.y.e.0.0.;.L.>.G.G.m.iXa k d b +.&.;.vX{ ;.*.*.q.0.;.t.d.u.u.fXA T i H.i ",
"b L b L +.Y.% p n n M P J z J M I O.SX4.A L R L A *Xb P M n x n I n I M M m ~ a j G G +.L w.dXb x x z v z c p p n p 3XL L >.y.h ",
"^ ^ =.L A 4.>.s.E.E.^.E._.T.W.K.Q.H.CXc L m R A L &X4.G./.d.d.d.s.J.R.u.R.L.@Xs G L A R L ;.dXr.>.e.q.u.R.0.t.p.p.M.&XL E K.>.p ",
"L 1.;.G A l *.K.(.(.`.(.$X`./.`.).#XZXd h b l l b ~.D.u.E.W./.(././././.(.(.iXu l M b l l 1.vXK./.^.(.(.L.^.(.^.(.L.,Xi k b R m ",
"L +.R m b l *.L././.(.(./././.(.^.$XVXi i i k f i (.D.0.R.E.E.E.E.W.E.E.W.W.gXq i i i h m _ dXK.(.K.J.J.E.E.K.J.J./.4Xf l w h i ",
":.;.4.w.4.4.~ s.r.r.p.e.t.t.t.p.t.D.JX4.=.>.=.=.>.A.) *.-.7.e.9.e.8.e.e.e.D.^.&.%.=.;.;.;.*.jX-.-.:.:.8.8.-.8.e.e.e.yX%.E _ _ ;.",
"w w 0 0 0 2 ~ J.^.L.K.p.p.s.p.s.p.4.HX; 2 2 0 8 $ >.I F.J.J.p.s.a.(.t.J.s.u.*X$ # - : 4 q h VXs.y.u.t.u.D.K.J.J.U.D.*XX - - - - ",
"C C k C C a F.wXuX6X7XsXpXuX5XpXsXtXmXd d d a h j G.A.&X6X7X6X1X6XyX6XuXuX3XcX; s e e e s j 4X=X2X=XyXuX,XtXtX,X4X4X@Xk C r e e ",
";.O.*.%.%.q.m.:X5XyX6X2X6X=X2X<XpXtXCX&.+.^ %._ %.L.>.!.*X:X4X4X:X,X6XuX6XuX*X=.%.&.,.%.&.*.ZX:X=X1X>XyXhXyX*X*X2XuX#XE &.E R E ",
"H J J K Y K Y q.< < # % - uXc E ! . VXl D F F L E L.4.2XO X 1 - * hX* $ X X aX0 j j l C l F ZX  . = h &.K CX@ + X $ :Xh m l j h ",
"E E O.E E ~ K Q.*.p _ _ M uXt v v B bXA D K R R H G.L.sX; ; 1 y O jXX 2 4 2 sXu g D D D D P vX. # - $ * : sX. = # @ 2Xf h l b j ",
"H R R H F F ~ A.{ v ' 9.%.xXc z B 7 vXf b D D D m U.H.tX& o o o   VXX O $ - aXu l b k l D L gX  o         aX@ , = $ :Xf j j l l ",
"L E E R Y K %.q.~ I ! Q ' hXW ( W N vXj A G G H G Y.G.wX= * : 8 o ZX$ 4 4 u aXu h h f b D R kX  O # O O * VX# , 1 r *Xh h j m l ",
"L R R P H H <.<.< < y 6 5 tX, W B -.ZXj A b C D C U.S.iX: : 1 0 o HX* : - y sXw i h d l A H kX  o     $ = ZX< 5 g c *Xj i f b i ",
"L P E R Z H ~ q.9 q t q r :XQ p.d.T.ZXj h l h D c G.G.aX; : # y   AX5 3 - l gXh r h f j m E aX  0 0   y q VXt Z = , :Xj u p m f ",
"F P R R b G _ CXkXzXhXpXpX:X` T.6.' vXj l l D m i u.(.4X#X#X1X1X%XpXt % % 3 AXb u i i b j I sXpXiXpX&X,X7XCX5 , 4 p 4Xr r u b f ",
"H F E H h p g M M v v c c z z v N x jXh a u r h F U.E M z p x n n n n n n p &.u 2 w w p i I yXt p p x n x x 7 7 7 7 /.u f j m i ",
"P J R H h i B _ 8.9.9.9.8.9.9.9.9.D.AXd e r s r i D._ _ [ 8.t.7.e.e.e.e.M.e.(.3 w i i b h E pX! ] 6.7.e.9.9.e.e.e.M.'.w h p b b ",
"g c f y i h I -.a.J.R.J.a.d.a.F.F.F.kX8 8 i i e 2 w.[ ) t.u.a.T.T.f.d.r.p.p.dXb b L M b p F uX8.t.9.r.d.p.p.p.p.e.p.&Xr c f f J ",
"p 7 w i i h _ 0.D.F.0.a.J.D.a.T.R.Q.sX0 4 3 r f 9 q.e./ t.i.a.a.p.i.e.r.r.J.3X+ 2 3 3 3 3 n pX6.J.s.7.8.e.e.8.e.t.t.U.f 8 y h t ",
"w.4.4.;.>.;.N :.6.] 9.8.8.7.7.6.8.-.vX4.4.4.&.4.;.A.M ) 5.] ] 6.-.[ { 7.-.e.D.;.&.;.;.=.%.E 2X' 7.6.[ ` [ ' [ [ -.t.:X4.;.&.;.4.",
"3 3 q 2 2 - B t.T.R.r.p.s.p.i.a.a.J.AX: * = ; < * ~ E 8.d.d.7.i.s.s.p.f.s.D.L.o $ X * - : r dXi.d.p.e.r.d.p.p.s.p.s.).# 4 ; : - ",
"i i w i w q _ L.`.$X<X6X=X`.'.6X6XdXvXe 8 9 9 8 8 >.>.E.<X&X=X=X).`.<X<X$X4X&X$ X 2 2 - 2 M 1XT././.`.&X/.`.<X`.$X&X!.y w 4 0 - ",
"u.K.K.~.G.G.) `.<X<X<X1XpX%X1X7X=X(.AXG.S.D.S.G.U.K.I u.1X1X=X=X1X_.1X1X<X$X(.u.>.S.S.y.u.O.<X%XQ.&X%X<XW.#X1X&X&X_.iX>.S.D.S.w.",
"7 3 2 2 4 1 m @X!.@X:X%X_.L.@ 5 , 5 zXq - , 3 : 4 _ _ ).Q.$X%XQ.Q.<X+ 7 = $ XX# $ - 4 3 4 < 7XE.Q.W.Q.Q.).).t t X % %X1 1 - 3 % ",
"b m F b m f J ~ < 5 , n @ 1X. t 5 1 kXr r e i f h u.*.,X% 7 5 t @ hX% $ + # 1X4 3 f g j y K pX. + + + , w pX  . = . !.q q w u i ",
"b m M m D g F _ q g w F . =X# t y 4 jXr r f f f f A.;.pX+ + @ @ + sXc f = , :Xw w i i f i F yX. 4 % % % % 7X+ 5 t y &Xy i i u i ",
"b h l j j h E %.# X * X . yX  . #   sX4 e r a u i S.>.,X$ = = . . xX. , t t 6X4 u i y f e K yX. + + @ . . zX4 5 + + #Xi y i u i ",
"h p l j j g R %.# # # X = yX@ $ $   sX0 e u f u i A.4.2X@ = t v . bX> , 6 % 5X, i i i f e K wX. $ = % . 1 xX, 7 X O ).3 w i u i ",
"i h h i i r E &.X O X   o ,X@ - #   sX0 e w w 0 w u.*.1X> 6 6 n > lXW 6 B 7 7X4 0 i i j s E :X= , t 7 Q V 8Xv z t 3 Y.w u i w u ",
"i t h u i i E lXpXpXdXpXhX<X. % % % zX0 4 4 2 w y 0.0.:XpX7X7X7X8XlXf.N B ` <X: 0 m r r k E wXpX2X1X7X7X2X<Xi.^.5.z #Xu e u w 3 ",
"y e f h 9 r 7 7 v x z z z z z z B x 5X0 : 4 2 7 w L.t z z z z z z z z z 7 7 W < 0 l e w q H $X5 x z x x z z 7 N N n #X2 d w 2 4 ",
"y r r y q r z B ( ` 5.5.' 5.( 5.] -.6X4 2 - 2 w t J.v z W ` ` Q ( W 5.( Q W $X; 8 f 0 0 3 F ).I / / / / / ` ' { ( W ~.0 8 2 2 2 ",
"0 r 0 4 9 1 M W 5.6.6.6.6.6.5.6.] 8.uX2 4 - * w 7 D.! I 5.5.5.5.5.5.5.] ' *._.* : : : 8 e K ,XW Q / ] ] 5.5.' { ` -.U.* ; 2 2 2 ",
"r r 0 e q 1 v I ] 5.9.5.6.6.6.7.7.6.1X: 2 4 4 5 4 0.v J Q Q 5.5.5.*.' 5.5.*._.r $ 2 : ; 4 D 4XI W / ( ( ' { ' ' / ) K.2 2 2 % - ",
"$ * O * : : t I ] -.] ] [ ' ) ) ) -.1XX # # & = $ >.g c W Q Q Q ` Q 5.5.` ] Q.  $ $ O O # c 1XM B B W Q ] ] ' ] ) -.S.$ $ X O $ ",
"& = = = & = J 5.7.7.9.9.9.i.9.i.i.e.7X% # # # # = ~ B ` 9.9.6.9.5.5.5.5.6.%.F.. @ * & $ & % %X( { { ' ] 5.5.' 5.-.! U.-   $ $ O ",
"9 q < : = < ` a.T.Q._.T.^._./.^.Q./.=X% X # = = = 0.B 6.J.T.T.T.T.T._._.$XF.$X# # # # & o < %X9.9.T.d.d.T.f.T.T.E.W.D.X $ O $ ; ",
"@X!.!.A.m.0.a.a.T.f.F.p.a.i.7.t.7.7.q.A.S.D.G.U.U.%.W W 5.5.9.9.s.F.9.F.9.0.*.A.S.S.P.A.S.u.9.a.9.9.r.6.9.7.d.R.J.J.w.u.S.Y.K.K."
};
