/* XPM */
static char *_1708947973[] = {
/* columns rows colors chars-per-pixel */
"64 64 249 2 ",
"   c #040102",
".  c #0A0502",
"X  c #09060A",
"o  c #0B0A0C",
"O  c #090608",
"+  c #120C09",
"@  c #0D0B13",
"#  c #0C0B18",
"$  c #110D14",
"%  c #120D19",
"&  c #13121C",
"*  c #18151A",
"=  c #0C1219",
"-  c #231A15",
";  c #151423",
":  c #1A1624",
">  c #1B1A24",
",  c #1C1B2B",
"<  c #171727",
"1  c #1D1C33",
"2  c #1B1D37",
"3  c #130F22",
"4  c #221D2C",
"5  c #231C24",
"6  c #231E34",
"7  c #1E2236",
"8  c #1F202F",
"9  c #23222C",
"0  c #2D242B",
"q  c #242226",
"w  c #232235",
"e  c #2E2A35",
"r  c #25253B",
"t  c #2A263B",
"y  c #2A293E",
"u  c #2A2637",
"i  c #322A34",
"p  c #342C39",
"a  c #38313A",
"s  c #31252E",
"d  c #42363F",
"f  c #232541",
"g  c #262A43",
"h  c #2B2B43",
"j  c #2D2E4A",
"k  c #272848",
"l  c #332D44",
"z  c #352E47",
"x  c #2E324C",
"c  c #3B3344",
"v  c #33334C",
"b  c #393548",
"n  c #2A2E53",
"m  c #2E3357",
"M  c #333453",
"N  c #393654",
"B  c #363B5B",
"V  c #3B3B5B",
"C  c #383856",
"Z  c #332E53",
"A  c #2E3666",
"S  c #3B3D63",
"D  c #3B3E6B",
"F  c #343967",
"G  c #383C75",
"H  c #313266",
"J  c #1E2443",
"K  c #433A4A",
"L  c #433E5B",
"P  c #463D55",
"I  c #423E64",
"U  c #3C426C",
"Y  c #3C4164",
"T  c #3B4374",
"R  c #3C447C",
"E  c #3C4A7E",
"W  c #394572",
"Q  c #4A4359",
"!  c #52455C",
"~  c #54495C",
"^  c #444363",
"/  c #4B4562",
"(  c #48476B",
")  c #544B63",
"_  c #5A4C63",
"`  c #554B69",
"'  c #5C5165",
"]  c #5C526B",
"[  c #57526C",
"{  c #4C4C73",
"}  c #42457C",
"|  c #444A7C",
" . c #454776",
".. c #514D75",
"X. c #4A5177",
"o. c #525175",
"O. c #5C5472",
"+. c #5B557B",
"@. c #5B597D",
"#. c #585679",
"$. c #62556C",
"%. c #63566B",
"&. c #645B73",
"*. c #6B5D74",
"=. c #675A79",
"-. c #614C67",
";. c #6C637A",
":. c #696478",
">. c #73647C",
",. c #736B7D",
"<. c #786A7B",
"1. c #756E7B",
"2. c #3B3E81",
"3. c #3D4884",
"4. c #464A86",
"5. c #445185",
"6. c #4B5485",
"7. c #46538A",
"8. c #4A548C",
"9. c #4C598B",
"0. c #555987",
"q. c #4B5594",
"w. c #545A96",
"e. c #474A92",
"r. c #635C84",
"t. c #625F90",
"y. c #5A6A9D",
"u. c #57659A",
"i. c #5A638A",
"p. c #6B6383",
"a. c #6C6A85",
"s. c #6E6B8D",
"d. c #676489",
"f. c #736B83",
"g. c #7B6C85",
"h. c #746C8B",
"j. c #796A88",
"k. c #7C7283",
"l. c #7D748C",
"z. c #76748C",
"x. c #6C6C93",
"c. c #6A6C9C",
"v. c #646795",
"b. c #736E94",
"n. c #786E96",
"m. c #6B7399",
"M. c #797697",
"N. c #697289",
"B. c #545BA5",
"V. c #515AAC",
"C. c #5B6CA2",
"Z. c #5865A7",
"A. c #5D72B0",
"S. c #656BA7",
"D. c #6574AD",
"F. c #6A74AC",
"G. c #6875A6",
"H. c #7679A7",
"J. c #6976B6",
"K. c #777CBB",
"L. c #696DB1",
"P. c #797DC5",
"I. c #5E73C1",
"U. c #84758A",
"Y. c #86788A",
"T. c #827C94",
"R. c #8B7D93",
"E. c #867999",
"W. c #826D8B",
"Q. c #867DA2",
"!. c #897DB1",
"~. c #7D819E",
"^. c #7A82A7",
"/. c #7A88B9",
"(. c #7D88C3",
"). c #86839B",
"_. c #8B8599",
"`. c #938B9C",
"'. c #95859A",
"]. c #9A9394",
"[. c #8986A6",
"{. c #938DA4",
"}. c #938DA9",
"|. c #9588A5",
" X c #9492AD",
".X c #9A94AC",
"XX c #9994A7",
"oX c #858AB8",
"OX c #918CB3",
"+X c #8791BB",
"@X c #9A99B6",
"#X c #A195AC",
"$X c #A498AA",
"%X c #A39CB5",
"&X c #A69BB7",
"*X c #A18EA8",
"=X c #9CA2B9",
"-X c #A5A3BA",
";X c #ABA5BC",
":X c #A9A5B8",
">X c #B5A9BB",
",X c #B7B1BD",
"<X c #AAA1AF",
"1X c #8689C3",
"2X c #8C95C5",
"3X c #9BA6C8",
"4X c #ADACC2",
"5X c #A5A9C9",
"6X c #B3ACC4",
"7X c #B5ACC7",
"8X c #B4B2C4",
"9X c #BCB3C3",
"0X c #BCBBCB",
"qX c #B9B6C9",
"wX c #A5AAD3",
"eX c #B8BBD4",
"rX c #ACB6D2",
"tX c #BEBEEB",
"yX c #C7BACA",
"uX c #C4BED2",
"iX c #CEBCD0",
"pX c #BCC6D7",
"aX c #BDC8E4",
"sX c #C5C3CB",
"dX c #C4C2D2",
"fX c #CCC6D4",
"gX c #CBCAD9",
"hX c #D4CDDB",
"jX c #D4C9D4",
"kX c #D4D3DC",
"lX c #D8D5DA",
"zX c #D3C9CC",
"xX c #E2D7D9",
"cX c #C7C9E3",
"vX c #D5CDE3",
"bX c #CCD4EB",
"nX c #DCDCEC",
"mX c #D8D7E6",
"MX c #D5DBF2",
"NX c #C9DAF6",
"BX c #E5DCE7",
"VX c #DCE3F0",
"CX c #E9E6EA",
"ZX c #E6E9F9",
"AX c #E8F5FC",
"SX c #FDFDFE",
"DX c #F4F9FA",
"FX c #F4ECF2",
"GX c #CBB9BB",
/* pixels */
"E.[.[.}..XOX@X XXX.X*X&X.XXXXX{.}.$XFXE.E.OX^.[.[._.1.]..X.X.X.X@X.X$X*X*X6X;X%Xn.[.[.[.[.M.SX X{.`.`.|.|.|.OX`.`.$XkXOXH.Q.E.M.",
"u.y.y.C.u.C.rXmXvXvXvXmXhXhXlXhXvXbXCX5.3.9.8.5.R G.=XaXfXjXjXfXkXmXhXhX9XqXgXH W W G W  .U AXdXsXsXyXsXdXuXyXeXpXpX3XF H F F G ",
"u.C.C.y.C.C.5XbXvXvXhXmXmXmXBXnXnXMXAX9.9.3.5.8.7.3XpXaXvXmXlXBXkXmXmXmXnXeXnXA G G W W T 4.ZXkXkXlXgXkXkXkXkXvXbXMXaXB A A A m ",
"m C m m C M I ( ......{ { {  .G D S SXZ m m M S F x.M.@.t.c.S.S.v.d.B x M m 7Xm Z n m n n n CX .F | T U U U f z l Z mXj w j M m ",
"H.H.^.^.H.H.i.[.H.!.H.H.@XMX/.oXK.OXZXu.v.c.v.c.c.OXoXeXw.w.w.w.w.nXv.q.8.w.MX .i.9.0.0.y.0.DXm 4.4.I e.F MX} }  . .bXW #.6.6.5.",
"oXoX/././.+X[.3XOX1X1XoXH.VXoXP.K./.DXG.G.F.G.G.F.wX3XbXS.L.B.S.w.SXB.B.L.w.ZX9.5.w.w.u.6.v.VXR I e.4.4.G ZX3.4.3.3.NXE 5.5.7.8.",
"/./.2X/.+X/.oXwX1X1X(./.oXMXK.P.P./.AXC.G.G.G.D.C.wXwXMXB.Z.L.Z.i.DXB.V.q.q.AX8.q.u.w.i.i.y.ZXU 2.3.2.G G ZXE 3.R } aX3.3.7.5.5.",
"/.2X/.(.+X+X[.5X1X(.(./.oXnXK.P.(./.AXC.C.S.C.A.D.rXwXNXw.Z.V.B.u.AXB.V.q.q.AX8.q.q.w.9.9.v.ZXU 2.2.3.3.W ZX| 3.3.R aXE 3.5.5.3.",
"/.2X(./.oXoX2X2X(.P.P.2XK.bX^./.(.c.ZXy.C.S.C.C.C.tXeXnXA.V.V.A.q.AX7.e.w.4.AX5.q.q.w.8.7.C.DXG G e.2.3.2.ZX2.3.I 4.bX| E E E 5.",
"(.(.(./.+X/.oX2XP.1X!.1XH.mX+XOXoXOXVXC.C.C.Z.C.y.eXeXmXB.V.V.w.8.DX8.w.4.6.cX8.5.q.q.8.w.u.AX4.2.4.2.R 2.AXI T G I cX| 5.E E E ",
"(.(.(./.^./.b.OXQ.E.l.n.M.}.}..X}.OXDXy.C.C.Z.y.y.3XH.r.h.b.M.h.Y.}.[.OX!.H.dX5.8.q.8.8.9.d.CXO.0.d.p.a.s.a.`.=XOX}.cX| | E E E ",
"(.(././././.V ^ L / I / / / / ( ( C AXy.C.C.y.u.C.5XI N b b b V L P L I L Q E.5.9.6.6.9.8.v.cXK K b c c K K Q b L L rXW 3.E E E ",
"/.(././././.+XqX7X7X7X6XqX8X4X8X8X4XZXu.u.C.u.y.u.3X2X[.-X:X;X;X;X:X;X;X;X@XmX5.9.8.7.7.7.u.ZX}.&X.X-X%X-X&X-X%X.X=X3XW 3.E 3.E ",
"/.(./.(././.oX=X8XqXeXqXeXqXqXeXeX4XZXw.u.C.u.u.y.3X2X[.-X-X;X4X4X;X;X;X4X4XVXE 5.7.7.5.5.c.nX@X:X-X=X@X=X=X@X=X=X3XrXW 3.E E E ",
"^./././.K.H.[.7X4X7XyX7X7X7X4X7X6X5XZXi.u.u.y.u.u.rX X-X&X:X-X-X-X:X:X:X&X[.DXB 6.6.6.0.E X.fX[.{.{. X.X@X.X@X-X<X.XeXB U U W  .",
"N.y.^.^.H.oXr.[.E.Q.Q.E.R.Q.Q.[.n.}.SXy.y.c.m.H.G.[.#.:.z.T.).).~.M.)._.[.[.@Xv.v.m.m.m.x.d.BXs.z.z.M.E.).l.).).{.XXVXm.m.x.x.m.",
"y 7 7 k j f d.h.g.j.l.l.l.n.W.E.E.n.SX2 1 1 1 2 < #.[ :.d.:.=.;.h.l.j.j.h.:.[.3 < , , , # 4 SX#.@.&.&.] ' ' [ O.O.] qXo = 3 ; ; ",
"9.u.i.9.9.0.rXdXkXlXvXsXuXvXhXhXgXkXFXD D S D W W rX=X0XdXdXfXgXfXgXuXiXhXpXnXk n n n Z n x hX>X0X8X9XpXdXfXuXfXhXkX7XJ m n n n ",
"~.^.~.^.H.H.-XkXlXlXvXmXnXvXnXvXmXFXSXm.m.N.v.m.m.=X~.mXgXkXkXkXhXcXBXBXmXmXmXs.t.d.t.p.i.s.SXiXdXvXcXmXuXuXgXcXvXbXeX0.6.0.9.0.",
"i.i.i.y.v.v.w.oXS.S.C.u.c.gXK.L.L.S.ZXI (  .{ X.X.~.M.-X4.E G T 4.ZXw.8.8.5.bXD I D I D I ..nXG G H Z H H bXH G W F eXM V V C V ",
"G.D.F.G.F.G.u.2XP.P.K./.F.cXJ.J.J.L.ZX4.0.9.0.i.0.@X XdXB.B.q.q.e.AXw.e.q.5.bXW 4.5.5.| | 0.ZXI 3.3.I n 4.MXF G G G rXF ( U ( T ",
"A.^.G.^.m.H.d.+X/.K.D.F.F.aXJ.J.I.c.ZXX.6.9.w.9.9.+X/.tXe.e.q.e.4.ZXw.e.7.5.nX . . .X.W X.0.ZXF R 2.N k D bXG G A A rXm D W U W ",
"G.^.J.D.J.J.0.0.K.Z.A.L.H.cXF.J.A.L.ZX5.5.q.q.9.9.2XoXcX@.c.q.q.8.ZX8.3.7.4.bXW W 3.W W E 9.bX .8.G / 6 I MXI G A W pXA Y F G W ",
"A.A.F.D.D.J.0.0.I S.P.L.F.cXD.D.A.S.ZX5.8.8.8.9.6.2X[.mXr X e.4.q.SX4.q.7.W bXY U U W E  .0.bXF I 4.=.l I MXH t.0.| wXm A G U S ",
"C.^.A.D.F.F.c.v.< !.J.S.L.tXS.D.J.S.ZX6.7.9.6.9.9. X XdXd.@ w.4.4.ZXk 3.u.} MXS Y E  .E U X.mX^ B f P z  .BXX 4 , < 3XY F B n m ",
"m m n m G.G.r.W.h.n.c.x.E.E.s.}.H.H.SXD J y 7 7 7 +Xs.v.d.:.r.@.+.W.+.n.n.t.7Xr f r j U X.X.mXO.O.` ` =.=.#.=.k.h.r.pXn A r m.7 ",
"x B x B U m.$ e p p l N K 6 z v V I CX6.x C B B x @Xg V l p e p V l P z z j ( 2 g m B U B @.sXe e e i p t z e q p u 5XB B #.N.e ",
"Y Y X.x j 0.$.f._._._._.*XR.R.R.|.M.BXj x v V x M @X@.b.].l.k.T.k.l.Y.;.T.T.|.r x B j S B [ jX:.] :.r.j.W.=.;.1.a.p. XB Y M.[ 0 ",
"B X.X.C j k X.l._.`.{.{.XXXX`.{.{. XCX7 g g j g y ).h.p.T._._._._.).`.'._.[.pX8 y v h y l o.lXM.`._._._.M.)._._.).T.-Xw g h V j ",
"M ( V v j g ` T.`.`.`._.].`.`._._.{.BXw r w f r r {.h.=.T.R.R.R._._.R._.R.).sX, w u r r l ^ fXl._.M.Y.)._.T.U.Y.)._.6Xu y 9 u w ",
"#.X.@.0.d.0.Q f.:.:.1.:.:.,.:.,.:.a.SX0.X.#.X...#.a./ ` $.%.;.*.*.&.*.*.&.z.).o.( o.X.#.X.o.gX[ [ O.] O.O.$.&.;.:.*.8X( ^ ^ ( [ ",
"8 8 > > ; ; Q l._.).k.,.a.f.f.k.f.=.FX; < > < ; @ #.L j.l.U.,.k.k._.,.U.j.a. X@ @ & & > , t CXa.a.f.;.p.l.l.l.Y.T.a.@XO ; & & & ",
"k Z k k k f h.7XpX0X9XyX,XpXyXyXpX8XbX7 J 7 7 y t z.a..X9X9X,X;X6X0X,XyX0X;XgX= 6 2 2 1 r t 8X$X>X$XqXqX4X6X4X-X6X8XOXr k 7 2 2 ",
"..I ..I I r.t.&X>X8X,X6X0X@X>X&XiX6XnXX.( ^ ( ( ( M.+.Q. X-X4X4X=X:X,XpX,X0X=XX.( ..(  .( ..CX&X&X:X-XqXuXeX%X#X;XqX.XI { Y V V ",
"N C Z L L L I r.% : @ + * pXp L P . mXj x N v C L M.@.7X@ O ; ; $ fX= @ O o pX> h f h h h v FX    % r ( C BXX . X @ %Xf x y h r ",
"V I I I I I N Q.-.4 ` Q a ,X6 c a c BXj x N V C C n.M.dX= * ; 2 o gXO * > & sXw t x j x v C mX  @ & # = ; iXX % o o ;Xr r y j y ",
"C V V C Z N Q f.-.a _ *.` hXt s K 5 BXr j x x x j M.n.rX@ @   X   nXO O # ; dX8 y g h g x B dX  X         0XX & $ o &Xu y y g h ",
"B V S V V V ( r.I P L P ` fXL P K a xXf x M m M M M.x.7X3 # 3 < O CX@ : < 8 pX8 r g y j m B gX  @ # @ @ $ mX$ * > w @Xy y y x h ",
"C V V V N Z I 4.3 : 6 - : 9X- P d $.CXy j g j j Z M.b.7X; ; ; , X AX$ ; & 2 dX, r y r h j C gX  O     o % BX; : u l @Xy y y h w ",
"C V V V Z L I r.: 5 6 6 6 &X/ <.k.R.BXt k h r j h c.n.uX% ; % 6   FX> > ; h uXh 2 r r f h Y uX  < 1   6 , BX6 z % * @Xg 8 w y u ",
"N B V V j v ^ CXjXjXjXyXuX&X/ U.%.` lXh h g j j t d.[.4X}.}.&X>X#XiX4 $ = , CXh 8 7 r y f L uXqX9XuX%X;X9XBX: * * t 4X7 2 w y u ",
"N v V N r r u v c l p l p 6 s s a p kXg 7 6 w y v M.Q l e 0 p a p p i a a u o.8 > 8 8 r r C 6X0 w 0 e e i s 0 5 q q {.7 r h x 8 ",
"N C V N r r b ) &.=.*.=.=.*.>.>.g.s.CXw , 1 6 8 r N.( ^ ' &.*.&.*.*.:.&.O.:.{.8 8 r r y u Q uXQ ] $.&.:.&.*.:.:.&.&.=X8 r y y l ",
"u y u w r w L ' k.U.U.W.W.k.<.W.W.h.gX< < r r , > :.[ Q ;.a.j.Y.Y._.k.1.1.,.sXr u v b x r v 0X&.*.:.<.k.1.<.1.1.:.1.XX8 g u t C ",
"q q 9 w 8 r / =.j.j.j.j.l.l.h.Y.l.|.uX> < 4 6 w < r.&.Q >.>.j.g.<.,.>.1.:.k.,XO > > , > * p yX-.U.a.*.&.,.:.%.:.:.;.E.r ; w u 9 ",
"@.@.0.o.#.o.c O.$.` $.*.&.%.&.] &.' BX+.6.@...0.+.s.c Q ' ' ' $.] ) -.%.] :.z.o.[ X.o.X.( Q >X_ &.$.) ~ ) ~ ' ' [ ;.-X+.o.{ o.@.",
"8 , > ; > * b ,.R.Y.>.<.k.f.1.<.f.l.FX; % 3 # 3 % I Q =.k.U.$.>.k.f.<.Y.k.z.z.O = @ = ; < w yX>.<.<.;.1.1.k.g.<.f.z.[.$ < & ; ; ",
"w w 8 8 8 , Q M.*X$X<X,X$XXX$X,X>XzXlX1 < : < < < o.#.T.<X$X$X$X`.}.>X$XXX6X@X@ O & ; = < v >XU.`.`.XX$X`.$X<XXXXX#X).6 , < < & ",
"a.z.~.M.b.x./  X:X&X&XyX,X#XyX>X$X|.FXn.s.h.s.b.M.M.Q a.>X>X$X&X>X|.>X>X:X@X[.d.#.s.b.d.r.` $X*X'.$X#X&X_.|.>X#X#X|.qX@.s.s.x.d.",
"q * * , > ; l {.[.|.&X*X|.W.. 5 & > kX, & * q ; ; ^ / `.!..X*XQ.Q.#X. 5 * @ [.o o * * > ; % yXE.R.Q.Q.R.|.[.4 0 . $ .X; ; * * = ",
"e v v y j u N / * 5 : z + &X. 4 * > hXw 1 2 w r u d.` -X+ 5 5 5 X jX* + . + ;X* , r r r w C uX. . + + * 9 yX  . *   )., , 8 w w ",
"y v v x z r b ( 4 u : v . .X$ 6 w < hX2 8 r r r r s.o.uX. + . . . iXt u % * &X4 , r r r u N 0X  * $ $ * + 9Xo : w 6 .Xr w w w u ",
"y y h h y y L ( o X @ X   7X    o   dX> 1 2 7 7 r s.#.-X$ % % . . xX. & 4 5 yX; w r w u 1 N 7X  $ . X . X hX: 5 o o }.r 8 r 8 r ",
"r y y y y r V ( @ @ X O % qXo $ @   dX; , r r 7 r d.@.>XX % 6 t X BX* * 5 $ ,X& w w w r 1 N 7X  + $ $ . : hX% 5 . o [.> w w w w ",
"r r y r r 7 V { X @ X   O 4XX ; @   dX> 1 , > , 4 a.{ ;X+ - - i + zXK - a - GX> , w w y 6 I -X# & 5 - P K GXd s q * )., 8 r , 8 ",
"r 8 r 7 w w L hXiXyXiXyXfX<X  $ + + lX, : ; < 8 w =.=.&XyXiXGXyXiXxXY.i K / ;X; > x 8 7 f S 7XyXyX>X>XyX>X&X>.].%.i  X7 7 9 , , ",
"6 6 r r , 6 5 5 i i i 0 i i s s c p ,X, & > * 8 4 l.4 s 0 0 s s s s 0 0 q - P : > k , 1 , C  X5 i 0 i i 0 s 0 a a i  X< 7 , * > ",
"w , r 6 < 6 s K ~ ~ -.-.~ -.~ ~ -.] ,X> & & * , 9 l.c i K ~ ~ ~ ~ K ' ~ ! Q *X& < f < , , v {.K Q Q Q ! ~ ~ ~ ' ~ Q ~., < , = ; ",
", , , < < ; c K -.%.%.%.%.%.%.%.' &.9X> > = = q 9 f.P P -.-.-.-.-.-.-.' _ ` |.% ; 3 & ; , N :XQ ~ Q ~ _ ' ' ) ' ~ ` E.= = * * > ",
"w 2 < 1 , < l K ~ %.*.-.$.$.%.*.&.] :X; ; > > , < =.a d ~ ~ -.-.-.-.' ' _ ] *X6 @ ; ; ; > l 6XN Q Q ! ! _ ' _ ~ P ) M.& < = * = ",
"# @ @ % 3 3 0 N ) ] ` _ ) ) / / ! [ ;XO o o @ % @ #.u p K P ~ ~ ~ ! -.-.! ` R.. # o o @ o z &XK d d Q Q ~ -._ ] ! O.x.= = O o o ",
"$ % % % % % K -.*.*.*.*.;.>.:.>.>.=.yX$ @ @ @ % & / K / *.*.*.*.-.-.-.*.=./ h.. X @ # # # $ *XP ~ ' ~ ~ ' -.~ -.] Q M.% O = = o ",
"< < ; % % : L g.U.R.'.'.'.'.'.'.'.`.%X# X o % % % =.c _ Y.R.Y.Y.R.R.R.R.*XE..X$ $ @ # # X : *X*.*.U.Y.Y.W.U.R.Y.R.R.M.O @ = o = ",
"}.[.Q.b.r.r.W.W.R.W.W.<.g.<.%.:.$.&.=.s.h.z.n.n.E.` P P -.-.*.>.<.W.<.W.*.r.` r.s.x.x.x.x.p.*.g.>.*.>.%.>.>.U.U.W.W.=.d.s.M.M.M."
};
