/* XPM */
static char *_1708947973[] = {
/* columns rows colors chars-per-pixel */
"64 64 249 2 ",
"   c #030201",
".  c #070B07",
"X  c #0A130C",
"o  c #0B1509",
"O  c #0B1513",
"+  c #0C1A15",
"@  c #0D1B1B",
"#  c #0D171C",
"$  c #111C1B",
"%  c #111B16",
"&  c #0E150A",
"*  c #0E221B",
"=  c #12231C",
"-  c #152719",
";  c #1F3215",
":  c #111C23",
">  c #122422",
",  c #142A24",
"<  c #1A2B23",
"1  c #152C2A",
"2  c #17282A",
"3  c #1A332C",
"4  c #1A3328",
"5  c #182E33",
"6  c #1B3532",
"7  c #1E3A35",
"8  c #1E3C3A",
"9  c #193437",
"0  c #0D2321",
"q  c #24382A",
"w  c #213D3A",
"e  c #233933",
"r  c #22341A",
"t  c #1E413B",
"y  c #1F4027",
"u  c #2B4434",
"i  c #22423C",
"p  c #2C4A3B",
"a  c #294639",
"s  c #314C3A",
"d  c #2D4B35",
"f  c #1D3D44",
"g  c #223D46",
"h  c #1E4246",
"j  c #244543",
"k  c #264A45",
"l  c #2B4B44",
"z  c #254B4B",
"x  c #2A4D4B",
"c  c #26464B",
"v  c #314D46",
"b  c #2C534C",
"n  c #2A5349",
"m  c #355749",
"M  c #264D54",
"N  c #2B5453",
"B  c #2C5758",
"V  c #335A54",
"C  c #335C5B",
"Z  c #345854",
"A  c #34625D",
"S  c #3C635C",
"D  c #3D6456",
"F  c #3A6250",
"G  c #2C5B66",
"H  c #325A65",
"J  c #2C5B75",
"K  c #2F566C",
"L  c #2E626E",
"P  c #3A6563",
"I  c #33646B",
"U  c #396968",
"Y  c #346A73",
"T  c #346B7B",
"R  c #386878",
"E  c #3C747C",
"W  c #397479",
"Q  c #336872",
"!  c #446A5A",
"~  c #49725E",
"^  c #486A56",
"/  c #426C63",
"(  c #476D64",
")  c #44726C",
"_  c #4B7566",
"`  c #537B66",
"'  c #547B6B",
"]  c #547967",
"[  c #4B7B74",
"{  c #467877",
"}  c #547D73",
"|  c #547D79",
" . c #496F74",
".. c #59806E",
"X. c #4D817C",
"o. c #5C8474",
"O. c #5B847B",
"+. c #5D8A7B",
"@. c #578478",
"#. c #638976",
"$. c #658C7B",
"%. c #678A7A",
"&. c #69937C",
"*. c #72947F",
"=. c #376A85",
"-. c #357581",
";. c #3B7483",
":. c #3C7A85",
">. c #3D7C8B",
",. c #39768B",
"<. c #3C7693",
"1. c #427D8B",
"2. c #457B85",
"3. c #437D96",
"4. c #4D758F",
"5. c #467EA5",
"6. c #3F818C",
"7. c #3E8291",
"8. c #42828C",
"9. c #4C838C",
"0. c #498486",
"q. c #558481",
"w. c #5D8C8B",
"e. c #588986",
"r. c #5C9188",
"t. c #448293",
"y. c #4A8898",
"u. c #558C98",
"i. c #4D929F",
"p. c #5A939A",
"a. c #628C82",
"s. c #688E88",
"d. c #6B9383",
"f. c #65938C",
"g. c #6B948C",
"h. c #689788",
"j. c #739A84",
"k. c #73958B",
"l. c #749A8C",
"z. c #7B9C8B",
"x. c #749585",
"c. c #649493",
"v. c #6C9B94",
"b. c #689898",
"n. c #759C92",
"m. c #749D9B",
"M. c #799B94",
"N. c #668E8F",
"B. c #79A08E",
"V. c #7BA295",
"C. c #7CA49C",
"Z. c #77A39B",
"A. c #4B87A4",
"S. c #558BA9",
"D. c #4C92A0",
"F. c #5294A3",
"G. c #5C9BAB",
"H. c #5995A9",
"J. c #5A9AB5",
"K. c #4D8CB2",
"L. c #639BAB",
"P. c #6699A4",
"I. c #669DB6",
"U. c #749EA6",
"Y. c #5BA1AD",
"T. c #6BA2A8",
"R. c #79A6A6",
"E. c #6EAABA",
"W. c #76AAB8",
"Q. c #7BB2BC",
"!. c #6EA9C2",
"~. c #76A9C3",
"^. c #78B1C3",
"/. c #569BC3",
"(. c #839F99",
"). c #819E8D",
"_. c #85A38F",
"`. c #83AA9D",
"'. c #8CAC9D",
"]. c #84A598",
"[. c #8FAE9D",
"{. c #84A5A3",
"}. c #88ACA7",
"|. c #8DB2AC",
" X c #8BB2A5",
".X c #93B3AA",
"XX c #9BB4AB",
"oX c #96B7AB",
"OX c #86ADB5",
"+X c #88B4B6",
"@X c #9BBAB4",
"#X c #9CBCB9",
"$X c #95B8B5",
"%X c #93ACA5",
"&X c #A2B8AB",
"*X c #A3BCB4",
"=X c #A2BDBA",
"-X c #AABEB8",
";X c #9CC2BB",
":X c #A3C2BC",
">X c #AAC3BB",
",X c #AAC4B7",
"<X c #B3C6BC",
"1X c #C7D1BC",
"2X c #8AB8C6",
"3X c #8CB3C4",
"4X c #99C4C9",
"5X c #9CC5D2",
"6X c #A4C5C3",
"7X c #ACC6C3",
"8X c #ABCAC4",
"9X c #AAC9CA",
"0X c #B3CBC4",
"qX c #B4CDCB",
"wX c #B8CBC5",
"eX c #BBD4CB",
"rX c #B8D3C9",
"tX c #A6CCD6",
"yX c #BCD4D3",
"uX c #B6D5D5",
"iX c #B1D0D4",
"pX c #BBD9E4",
"aX c #BCE1EE",
"sX c #C7CEC8",
"dX c #C4D5CC",
"fX c #C4D9D4",
"gX c #CCDEDA",
"hX c #C5D8D5",
"jX c #D2DBD8",
"kX c #D0DBCE",
"lX c #CDE2DB",
"zX c #D2E2DC",
"xX c #DBE4DD",
"cX c #C6DDE4",
"vX c #D3DEE2",
"bX c #CBE3E9",
"nX c #D5E4E3",
"mX c #D8E6E8",
"MX c #D8EAF3",
"NX c #D4ECF6",
"BX c #E5EBE8",
"VX c #EBF2EC",
"CX c #E7EDF6",
"ZX c #E3F3FD",
"AX c #E8F6FA",
"SX c #FDFEFE",
"DX c #F4FAF9",
"FX c #F8F6EA",
"GX c #E0DFCE",
/* pixels */
"C.{.}.}..X|.$X.X.XXX&X$XXX.X.X|.|.&XFXC.C.}.R.R.}.C.h.oX$XoXoXoX#X.XXX&X%X7X=X@Xv.{.{.R.}.T.SX|.}. X'. X}.}.}.%X'..XzX|.U.R.R.m.",
"i.i.D.H.i.F.tXbXvXvXvXmXjXjXzXzXvXbXMX1.>.7.3.>.T T.;XuXhXhXhXhXnXnXgXgXwXyXcXK T T T T { I DXfXdXeXdXeXfXfXdXuXuXuX5XK K G L L ",
"D.F.F.F.H.H.tXbXvXnXvXbXnXmXmXmXmXNXZXt.t.,.>.1.>.4XuXuXnXnXmXmXlXmXnXmXmXyXmXK L T T Y R ;.CXzXgXzXlXlXzXlXnXbXbXMXpXG G G G B ",
"B B B B B B P U { { { { { { R R I H SXB M N N H G b.v.e.u.b.P.P.u.r.A N B M 9XB M N M N M M MXW H { Y Y Q I h c x N nXx 7 M M B ",
"U.U.R.T.T.P.e.R.U.U.I.U.2XbXQ.W.~.OXMXp.p.b.p.H.H.+X^.iXy.u.y.4.9.MXp.t.1.9.MX{ 9.9.9.9.u.0.SXB 1.=.T E L NX;. .R T aXY { 2.2.6.",
"Q.~.E.E.W.2X}.4X3X3X3XOXR.MXW.~.I.^.DXG.L.T.p.G.T.5X4XaXS.H.S.S.y.SXA.K.J.A.ZXt.6.y.y.u.0.p.MXR =.4.=.=.Q ZX;.,.<.,.bXW 6.>.>.6.",
"W.Q.^.^.Q.Q.W.5X~.~.~.W.~.bXW.~.!.W.AXD.G.G.H.G.H.tX5XbXS.S.K.S.u.DXA.5.5.y.ZX1.t.y.y.y.t.p.ZXQ =.=.=.=.Q ZX;.=.=.R aXT -.:.>.:.",
"W.^.^.Q.Q.Q.R.tX^.~.~.~.Q.NXI.~.!.W.AXF.H.G.G.G.H.tX5XNXA.S.K.D.i.AXA.5.3.t.ZX8.t.y.y.8.6.p.AXR J =.=.-.R MXE =.T =.aX-.-.6.,.:.",
"!.^.^.^.W.Q.3X2X!.~.~.3XL.bXE.E.~.b.ZXF.F.H.H.F.F.pXiXMXK.K.K.J.<.ZX>.<.3.1.AX1.3.t.t.t.7.F.DXJ =.<.=.=.=.ZX=.=.=.R bX:.E -.-.:.",
"^.^.!.E.Q.W.W.2X~.3X~.OXU.vX+XOXOXOXNXF.F.H.F.F.F.tXyXbXS.5.5.y.1.SX3.u.1.1.cX>.:.3.3.t.y.i.AX;.=.,.=.T J AXT R R  .pXW :.-.:.-.",
"!.^.^.Q.T.Q.b.OXU.M.M.U.m.|.|.$XOXOXSXi.D.H.F.D.F.4XU.N.g.c.m.h.n.}.}.OXR.R.fXE >.3.t.8.8.r.VX} | w.$.r.g.s. X;X|.|.cXW -.W W -.",
"!.^.E.Q.E.E.S P H ( ( U ) / / ) _ Z AXi.F.F.D.D.F.4XH Z m Z V D ! S ! P P D R.6.9.8.8.1.7.u.gXZ m v F m m Z F V S V tXY -.-.-.-.",
"!.^.!.E.E.E.+X9X7X9X7X7X9X9X8X9XqX9XNXi.D.D.i.i.D.2X$XR.#X:X:X:X6X;X=X=X6X#XnX6.t.6.>.6.6.u.CX|.=X@X@X#X$X;X#X$X+X;X4XW ,.-.-.-.",
"!.^.E.!.E.E.OX4XqXqXyXiXqXqXqXuXiX6XZXy.D.D.i.i.D.5X#XOX;X;X6X6X6X;X6X:X9X6XMXW :.6.6.6.,.p.MX$X:X;X2X$X#X;X$X;X;X;XtXL -.-.-.-.",
"W.Q.Q.E.W.I.OX7X7X7XqXqX9X7X7X0X7X6XAXu.i.y.i.u.i.9X+X;X*X:X;X:X:X:X;X=X#XR.DXG 8.2.6.6.W 0.hX}. X X.X$X$X#X$X;X;XoXuXL Y Y Y W ",
"r.c.T.T.U.W.q.{.{.{.(.m.{.{.{.{.m.}.SXu.p.b.b.T.T.R.@.e.v.n.`.C.Z.Z.`.].{.{.$Xb.w.T.b.b.p.r.BXs.v.v.V.V.V.V.V.C. X XBXp.b.b.c.p.",
"k t t z z g N.g.k.k.m.k.M.M.M.M.(.n.SX5 5 5 5 8 3 X.[ r.&.+.O.a.k.n.s.a.k.e.R.0 2 5 5 2 @ 6 SX} o.@.@.o.' ' ' @.o.@.0XX @ 0 > > ",
"6.y.8.8.8.9.tXyXlXjXvXeXyXnXvXcXhXgXAXQ I I I R Y tX;X8XyXyXhXgXhXgXsXhXlXfXmXc M M M B M N gX<XqX0XqXrXhXhXrXhXgXgXiXf B M M M ",
"Z.Z.T.R.T.R.;XlXjXnXnXbXmXvXCXvXmXCXSXb.b.h.p.b.p.;XZ.xXlXlXzXgXlXbXCXBXnXMXmXc.e.N.N.N.r.f.SXdXyXhXcXnXyXyXgXcXcXbXiX9.0.9.9.9.",
"r.u.u.p.u.u.u.Q.P.P.H.u.b.pXL.I.J.P.CXU W W { { X.R.b.=X:.E T R =.CXy.4.1.;.bXI Q I U H Q { mXK J K K K G bXH J R H iXB P C C C ",
"P.P.L.I.L.L.u.2X~.~.!.I.T.pXE.I.J.L.AX2.0.9.9.e.0.+X+XcXA.A.5.3.<.AX4.3.3.>.bXW E 8.:.W 2.9.AX=.=.<. .g =.NXG J Q L tXI Y Y U W ",
"Y.Y.Y.T.b.T.u.+XE.E.J.L.L.pXJ.J./.p.ZXE 8.6.t.t.8.Q.W.pX3.,.3.<.1.AX3.3.>.:.bXW W W W W W 0.CXH T =.V c I bXR J J L 5XB I Q Y R ",
"Y.Y.Y.Y.J.J.0.9.I.S.K.I.E.cXL.J.J.H.ZX:.6.7.t.t.t.2XW.cXq.b.3.3.>.AX3.,.>.:.bXY Y 6.W Y W t.bXE 1.R P e R MXI J G L tXI U L L Y ",
"G.G.Y.G.G.E.9.9. .H.I.J.L.pXG.J.J.J.ZX:.6.t.t.8.8.$XW.vXf . <.4.3.SX,.t.>.T bXI Y Y Y W W 9.bXI Q { O.c I MXH u.9.E 5XB L I Y Q ",
"G.G.I.G.I.T.p.u.: W.I.P.U.pXL.J.J.L.ZX;.6.6.8.6.6.;XQ.fXe.O y.2.:.CXg =.S.;.MXH I W W W W { lXU C j S v R CX. q 5 2 5XL L I N N ",
"B B z G p.P.w.m.g.b.c.b.C.m.N.OXU.R.SXK h h t 8 t R.c.w.d.r.e.2.X.m.| v.b.w.9X8 h h z Y W X.zXX.[ ) } | | | a.x.d.e.iXB B i r.t ",
"n A M C U T.% a n s x V Z e v m C U CX2.N B A A N $Xk C s p d s F v D v x x ) 8 h N C I A X.dXd d p u v w v d y l a 4XB A X.h.i ",
"U U W N z 0.o.d._.].C.].%X(.].V.%Xv.BXx N n A n B $Xq.v.`.B.B.B.l.l.z.s.V.C.}.8 N A z I A X.kX&.o.+.%.s.M.%.&.h.h.+.$XC P B.[ i ",
"A { E B N h [ v. X X X X|..X X X X|.BXt h k z z t R.c.a.C.`.`.`.`.C.'.}.`.R.eXt j b k k l [ zXZ.`.`.`.C.V.V.`.V.C.V.:X8 h k A n ",
"V W P z z k [ V.[.`. X'.[.'.'.`.].|.mXt t i j t i  Xg.$.z.].].].].].]._.].{.eX4 8 i i i l U fXn.`.V.V.V.C.V.V.B.V.`.7Xw j 7 i t ",
"X.{ X.e.e.e.D d.&.&.d.$.$.&.$.&.$.h.SXe.[ [ { { @.s./ ) ..o.&.o.$.+.#.%.#.h.C.X.) { [ [ [ [ lX..' @...o.o...o.%.&.+.wX) P U ) [ ",
"3 6 3 3 1 , P B.B.B.B.&.h.d.d.j.h.O.DX@ 1 1 5 1 + X.S k.z.z.d.g.j.`.&.z.l.r.$X+ + > > 1 6 j mXh.a.h.+.a.k.Z.l.B.C.h.$XX , = * * ",
"M c h c c j g.wXeX0XwXdXwXrXeXyXeX9XbXh h t 8 t j c.f..X0X0X8X>X8XrX0XeXrX8XfX0 8 9 5 5 8 j 0X@X,X*X0XqX6X7X7X;X7X8XOXg z 9 9 9 ",
"{ ) {  . .4.N.-X0X0X8X0XrX$X>X-XkX7XmX{ U P W ) ) m.| {.$X:X8X6X#X;X8XeX8XrX$XX.) {  .E ) [ VX@X*X=X;XiXhXwX@X@X:XqX|.P { P A P ",
"N B C C C V K 4.# 2 O & - qXj ! C . mXx N Z V B P m.X.0XX X 2 0 + hX* + X o eX3 k j j z z N VX  . % w W Z CX& . X O #Xj b i h t ",
"A U U / P P Z {. .e ) ! n rXq v v m mXx N B A V Z v.m.fX* * 1 8 X lX. = 3 0 eX7 i x M b b V mX. O = O $ : hX. $ X X 7Xw j k n j ",
"B A A C Z Z P h.] s ] | ) jXl e m q BXe z n M b x b.b.9X# X . . . mX. X + 0 yXt j k j z x C cX  .         yXO $ % O #Xw j j k k ",
"A A P C H V ) e.( D ^ ^ ) jX! ! F s xXk N N B B N R.b.7X0 # : 0 . VX@ 1 1 9 eX7 t z j z N I yX  O # O O * nXO = , 6 #Xj j j k k ",
"C A A C C N [ 4.: : e r < wX< m m } VXa z z x c c m.b.9X2 > 2 5 . AX+ > * 7 yX7 t j t h z C fX        O * BX: < w l $Xj j j k t ",
"V A A A n V / 4.2 2 e 5 6 =X( j.j.).BXj z j j x x b.b.hX* > O e   FX4 < , k uXj 9 j i j k U yX  5 5   7 3 BXe x % < #Xj 9 y n i ",
"B A A A k V U VXjXjXjXwXhX=X_ z.#.] nXk j j x x t r.R.6X X|.=X>X$XsX3 % - 3 VXh y t t t a P yXqXqXdX#X:XwXBX, - , a :X7 9 7 p t ",
"N Z P V i t i b v l p l a e u u s u lXh 8 8 8 j B Z.S m u u a s s v s s p t { 7 1 7 6 i w C 0Xq e e a d d d y 4 4 4 }.t h l k t ",
"V Z C V t i v _ O.#.%.$.%.#.%.%.x.g.VX8 5 7 8 6 t h.U ~ ' @.#.#.#.&.+.+.@.&. Xt 7 t i k t P dX! ' o.o.o.o.#.#.&.+...;X3 w k k l ",
"i l w w i t D ' k.z.z.l.x.z.x.k.k.g.lX1 1 8 8 3 4 +...U &.d.k.l.]._.*.&.&.&.dXt i n V n t V rXo.$.$.&.j.*.j.&.&.&.&.oX7 z i i V ",
"y 4 i 7 7 j / +.k.k.s.x.z.l.g.V.l.}.yX3 1 q 6 w 2 $.+.D %.&.x.x.d.&.%.&.%.B.>Xo < 4 4 4 , d sX} l.d.o.#.&.$.o...&.a.C.8 > e a 7 ",
"e.X.@.[ X.[ m } } _ | #.+.o.....o.' BXq.q.2.[ 2.2.f.v ~ ] ` ] } ' _ ` #...+.h.X.W X.X.[ W S -X] o..._ _ ` ~ ......+.#Xq.{ { X.X.",
"6 1 1 , , @ m $._._.&.*.d.d.&.j.j.B.VX> # : : > # P S +.x.z.o.&.l.h.&.).h.v.n.. + O @ > , e sX&.j.&.&.&.*.j.j.j.d.h.}.+ 2 : > 0 ",
"7 t 7 7 6 3 ~ Z.XXXX,X<X&X.XXX<X,XkXxX5 1 2 2 2 2 | X.C.,XXXXX*X'..X,X&X.X<X|.* o = > * 1 n >X(.[.[.oXXX'.XX*X.X.XoX{.6 3 , 3 > ",
"a.l.Z.Z.v.b./ .X=X-X*XwXwXXXwXwX*X'.VXb.b.g.h.b.Z.m.S h.<X=X@X@X=X%X<X-X,X@XR.r.X.f.v.w.w.) *XXX'.XXXX*X`.%X>X.X@X%X0Xq.f.c.c.e.",
"y 4 , 3 , , x }.{.}.*XXX%XM.. < < < jX6 = - 4 < > P (  X%X%XXX{.{.&X& q = % R.+ + - , , , $ sXM.(.].{.{.%X}.e q . = $X, > - , - ",
"k n n p x i Z / = 3 < v X =X  q , , gX7 9 9 w i i f.) :X& q < q X jX= & . o ,X= 4 i i j 7 V dX. o o X > 4 dX  . %   R.4 4 7 7 t ",
"j n N n x i Z U q w 3 N   @XO e 7 , gX7 7 8 8 f j f.[ eX& & & . . hXj a % = :X7 7 7 i i w V rX  - & - - & rX& < 7 e $Xe 7 7 i 7 ",
"t k j k l i P ) X X # . . qX  . O   yX1 9 9 9 8 8 N.| =X# # %     GX. - e 4 wX, 7 w 7 i 5 V qX  & . X .   vX1 < o + |.e 7 8 7 i ",
"i j k j j w S ) O O X X $ wXX + X   fX1 9 8 t 7 8 N.X.7X. # e g . BX% - < - wX- 7 7 7 j 9 C 9X  O % %   2 gX= q . o }.1 7 t 7 t ",
"t 8 j w w 7 P { O X O   . 6X. 0 * . yX1 5 1 3 4 7 a.[ ,X& ; ; s & GX^ - s r 1X1 3 8 7 j 8 P 6X@ $ e r ^ ^ 1Xs d 4 ; R.3 7 t 3 6 ",
"i 7 j 9 w 8 C jXdXsXsXeXkX-X  % & o xX3 1 , , 7 6 e.+.=XsXsXsXsXsXGX_.s m ( -X, 1 x 7 8 g H 7XsX<X<X<XsX<X*Xd._...d |.7 9 7 4 3 ",
"w 9 w i 5 e < q s s e u s q s u m p <X4 , , , y q M.q e q q s q q s u y q q D 2 1 z 5 7 4 C $X< d u u u u u y s s d |.1 t 4 , , ",
"7 6 w w 3 e q F ^ ~ ] ] ] ] ^ ] ' ..<X1 0 = , 4 e z.m w ^ ] ^ ] ^ ^ ' ~ ^ ^ XX$ , j 1 1 4 N }.D ^ ^ ! ^ ^ ` ~ ` ~ ! Z.6 1 3 * , ",
"1 6 1 2 2 2 v F ] ..} o.' ' ' #.` @.wX, 4 * * 3 4 h.^ F ] ] ] ' ] ] ' ` _ ] %X$ 1 0 > 1 1 V #XF ! ! ] ` ` ` ` ` _ ' Z.* * - , , ",
"8 7 1 3 6 > v F ] ] #.' #.o.] #.o.o.,X> , , , 3 < e.v m ^ ] ] ] ] ' ` ` ] } %X9 + 1 0 0 4 x 7XF D ! ~ ^ ` ] _ _ D _ b.0 4 * - * ",
"O # O @ : > e F ] ] ] ] ] ] ~ ~ ( ' >XX o o + @ % | w v ^ ^ ^ ^ ^ ] ] ] ( ] %X  @ O X O X N #Xv F m F ^ ] ] ] ] _ ..c.* * o o o ",
"O $ $ $ % $ m } #.} %.%.%.%.#.%.&.o.wX% O + O # $ / v ~ ' %.| %.' ] ] ] | ( g.  X + O # # % &X^ ~ ..` ` ] ] _ ] } S Z.@ . * + X ",
"2 2 > : $ < ( k.).].%X].[.[.[.[.'.'.*X% X X $ % $ | m ' )._._._.(._.(.%XXXM.XX+ % O O O . 2 XX#.%.z.j.z.).).(.).].].M.. O + + * ",
"}.}.R.g.s.4.s.x.(.z.k.d.x.%.o.%.o.o.e.f.c.v.m.U.M.' Z ^ ] ] %.' ).).d.z.%.+.) N.c.c.p.N.p.s.%.x.%.%.%.o.%.%.z.z.k.k.q.f.f.T.v.b."
};
