/* XPM */
static char *_1708947973[] = {
/* columns rows colors chars-per-pixel */
"64 64 254 2 ",
"   c #040000",
".  c #0D0403",
"X  c #0C0508",
"o  c #130603",
"O  c #140A06",
"+  c #1B0C05",
"@  c #150C0A",
"#  c #1B0D0B",
"$  c #170703",
"%  c #1E110D",
"&  c #15120C",
"*  c #1B1211",
"=  c #1A0D10",
"-  c #220D0A",
";  c #23120C",
":  c #28140C",
">  c #241413",
",  c #2B1514",
"<  c #261915",
"1  c #2A1A15",
"2  c #2D1C1A",
"3  c #271719",
"4  c #321A15",
"5  c #321E1C",
"6  c #3A1D18",
"7  c #32170D",
"8  c #35211D",
"9  c #3A221D",
"0  c #392316",
"q  c #2E211C",
"w  c #2B1D21",
"e  c #351E21",
"r  c #362322",
"t  c #3B2523",
"y  c #3E2925",
"u  c #3D2B2B",
"i  c #37272A",
"p  c #37282D",
"a  c #49261B",
"s  c #4D2A1E",
"d  c #43241B",
"f  c #542E1F",
"g  c #422A26",
"h  c #4B2C23",
"j  c #432C2A",
"k  c #472A27",
"l  c #532E24",
"z  c #45312D",
"x  c #4B312D",
"c  c #4E3125",
"v  c #54322C",
"b  c #5A3529",
"n  c #452D31",
"m  c #443133",
"M  c #4B3333",
"N  c #4A353B",
"B  c #4A3737",
"V  c #533533",
"C  c #543936",
"Z  c #543C3C",
"A  c #5B3C3B",
"S  c #593835",
"D  c #633A2D",
"F  c #663E36",
"G  c #5C413D",
"H  c #55413B",
"J  c #64423E",
"K  c #6C433C",
"L  c #6A4337",
"P  c #73493C",
"I  c #7A4B3D",
"U  c #734639",
"Y  c #744A37",
"T  c #4B3945",
"R  c #553C46",
"E  c #523E52",
"W  c #623F43",
"Q  c #5B444B",
"!  c #594549",
"~  c #5D4D5B",
"^  c #5B4655",
"/  c #5D505B",
"(  c #684747",
")  c #744B43",
"_  c #7C4D42",
"`  c #734C4B",
"'  c #754945",
"]  c #7A534A",
"[  c #6C4D55",
"{  c #644B5A",
"}  c #664957",
"|  c #68535A",
" . c #755353",
".. c #7A5552",
"X. c #79585B",
"o. c #724F56",
"O. c #7C625F",
"+. c #5D4763",
"@. c #5D5164",
"#. c #684B66",
"$. c #6B5464",
"%. c #6D5B6B",
"&. c #695666",
"*. c #725B64",
"=. c #735B6C",
"-. c #775966",
";. c #775B75",
":. c #6B5070",
">. c #78626A",
",. c #7C6C7C",
"<. c #796375",
"1. c #804D3E",
"2. c #814E44",
"3. c #835444",
"4. c #835549",
"5. c #855A4B",
"6. c #8B5D4C",
"7. c #885747",
"8. c #835B53",
"9. c #835C59",
"0. c #885B54",
"q. c #915F50",
"w. c #8D624E",
"e. c #88624D",
"r. c #8C6353",
"t. c #8D645B",
"y. c #89665B",
"u. c #936454",
"i. c #946A55",
"p. c #9A6C5C",
"a. c #95695A",
"s. c #9C725C",
"d. c #977259",
"f. c #93624E",
"g. c #A1765D",
"h. c #A06F5E",
"j. c #896767",
"k. c #946B63",
"l. c #986C67",
"z. c #9C7364",
"x. c #96736C",
"c. c #9A7569",
"v. c #816D7C",
"b. c #866976",
"n. c #8B7279",
"m. c #947374",
"M. c #9B7573",
"N. c #997878",
"B. c #8F7170",
"V. c #A47A65",
"C. c #A37B6B",
"Z. c #A67768",
"A. c #A37B73",
"S. c #A67A77",
"D. c #A36E6B",
"F. c #855866",
"G. c #9D8279",
"H. c #AA826D",
"J. c #AB8473",
"K. c #A5837B",
"L. c #AC897A",
"P. c #A98477",
"I. c #B28D7B",
"U. c #B48877",
"Y. c #B29279",
"T. c #775985",
"R. c #7D6683",
"E. c #7B6592",
"W. c #856A85",
"Q. c #897588",
"!. c #967986",
"~. c #8B7993",
"^. c #947998",
"/. c #8B6D91",
"(. c #A47C83",
"). c #8978A4",
"_. c #9C8288",
"`. c #9C8699",
"'. c #9E929B",
"]. c #AB8482",
"[. c #A98987",
"{. c #B28B85",
"}. c #B39284",
"|. c #B3938B",
" X c #BC9A8D",
".X c #BA9588",
"XX c #A68B98",
"oX c #AB9298",
"OX c #BA9B94",
"+X c #B79996",
"@X c #AF908A",
"#X c #BDA39C",
"$X c #BBA398",
"%X c #B7A28F",
"&X c #9C8AA6",
"*X c #9D8DA9",
"=X c #A48BA7",
"-X c #A693A7",
";X c #B49DA5",
":X c #B29AB5",
">X c #BBA5A4",
",X c #BCAAB7",
"<X c #BEB1BB",
"1X c #C19B8A",
"2X c #C19E96",
"3X c #C2A49D",
"4X c #C7A89A",
"5X c #CEAC99",
"6X c #C09EA1",
"7X c #C3AAA3",
"8X c #CAAEAA",
"9X c #C6ABA6",
"0X c #CBB3AD",
"qX c #C9B3A9",
"wX c #D3B7AB",
"eX c #C5ADB5",
"rX c #CBB7B7",
"tX c #D2BCB3",
"yX c #D6BBB8",
"uX c #D1AFA3",
"iX c #D4C3BC",
"pX c #D8C4B8",
"aX c #DFC3A3",
"sX c #E5CCBC",
"dX c #BDACC1",
"fX c #C7BAC5",
"gX c #CFB8C1",
"hX c #D4C3C3",
"jX c #DCCAC3",
"kX c #D9C8C8",
"lX c #DED2CA",
"zX c #D8CAD6",
"xX c #DED4DA",
"cX c #CEC5CB",
"vX c #E1CBC9",
"bX c #E2D4CC",
"nX c #E4D6C9",
"mX c #E3D3D3",
"MX c #E7DAD9",
"NX c #E4CCD5",
"BX c #F3E8DA",
"VX c #EAE1DB",
"CX c #DCD7E5",
"ZX c #D6CEEA",
"AX c #E5DBE7",
"SX c #E9DEF0",
"DX c #ECE4E7",
"FX c #F3E9E6",
"GX c #ECEAF7",
"HX c #F3ECFA",
"JX c #EDF3FD",
"KX c #FDFDFD",
"LX c #F5F9FA",
"PX c #F6F3EA",
/* pixels */
"K.[.@X@X+X|.%X|.|. X.X+X X.X}.}.|.1XPXA.K.@XK.[.[.L.d.Y.|.OX X X+XOX.X1XY.8X7XOXm.[.].[.[.!.KX|.}.Y.Y.@X{.{.@XI.Y.1XbX|.!.(.].N.",
"<.v.,.W.,.,.eXAXNXNXNXMXmXvXbXbXmXAXDX*.&.%.%.$.^ !.>XlXkXsXpXvXbXxXvXvXyXyXgXT ^ ^ ^ ! [ ( HXjXpXpXpXpXiXiXgXhXcXhX<XR T T ! R ",
",.R.v.v.W.Q.,XxXNXNXmXMXMXMXMXAXAXAXJX=.=.#.&.%.#.,XcXcXmXMXMXMXmXmXMXMXAXgXGXT ! Q ^ Q ( $.GXbXlXbXlXlXbXmXbXxXMXAXzXT T T T N ",
"C C C Z Z C W (  . . .o.[ o.} ( R R KXV M M B A R m.N.y.b.N.W./.b.j.H B Z M eXV M N M M p m GX( R [ ( Q Q ( i M n M MXm 9 m M N ",
"!._._._._.!.j.[.(.!.!._.>XCX`.=X=XoXGXb.n.n.n.n.n.;XoXrX;.b.;.F.;.DXb.=.*.b.SX[ >.-.-.>.b.*.KXN #.#.} { R SXo.[ } } xX! X.*.X.*.",
"XX=X`.`.XX-X[.,X:X:X=XXX_.DXXX=X^.=XLXQ.!._.n.Q./.dX,XZXW./.W.W.;.KX<.E./.;.GX=.%.,.j.<.X.B.AX{ W #.{ #.^ GX{ #.#.@.CX^ | &.&.%.",
"'.-X-X-X-XoX'.<X=X=X*X=X=XSX^.*X).=XLXR.Q.Q.~.Q.Q.fXdXSXv./.W.W.b.LXR.T.;.=.JX=.%.<.<.>.<.v.GX! #.+.^ ^ E GX{ +.^ { CX^ @.&.&.&.",
"'.-X-X*XoX-XXX,X-X=X=X&XXXSX^.*X&X'.LXQ.Q.Q.R._.Q.fX,XZXR.R.E.T.<.LXT.T.T.;.JX*.%.;.<.>.*.B.PX! ^ +.+.~ Q JX} +.^ { ZX~ / | @.| ",
"*X-X-X*X`.-XoX:X).=X=X:X(.CX^.XX=Xn.HXv.W.Q.Q.,.R.zXgXSXE.E.E.).=.JX$.#.;.#.LX*.=.;.=.=.%.,.LXE E :.+.+.+.HX#.+.{ } CX| { / { | ",
"*X-X*X`.-XXXXX:X^.:X^.=X(.AX+X=XoXXXSXW.R.Q.Q.R.v.fXgXNXW.T.W.;.*.KX=.b.#.-.zX$.$.;.=.=.<.v.LX#.+.#.{ ~ E HXE ^ W } zX| { / / / ",
"*X*X*X'._.oXm.oX(.(.S.M.N.|.{.+X|.oXKXv.,.Q.R.,.,.<X!.l.k.l.c.l.Z.{.XXXX[.(.kX| $.%.;.%.*.j.BX8.9.j.i.y.l.l.}.#XoX|.zX} | / / { ",
"*X*X&X&X'.'.A J ' W ' ' ) ' ' ' ` S PX,.,.Q.,.,.,.qXW S S S G G ' U W F K J K.| >.*.*.*.>.b.zXD D b D S D D L D F F fX! ~ / / / ",
"*X*X*X*X&X`.oXrX0X0X0X8X0XrX0X0XrXeXGX,.,.R.,.,.,.>X;X[.3X7X7X4X7X3X7X7X7X;XMX%.=.%.&.&.%.,.GX.X3XOX#X#X>X3X#X$X+X$X<X^ @.~ / / ",
"*X*X*X'.&XXXoX>XrXyXgXgXrXrXrXrXrXeXGX<.,.R.,.,.R.<X>XXX#X>X7XqXqX7X9X9X8X9XDX^ $.&.&.&.| n.AXOX7X$X+X#X+X>X>XOX$X>X<X! / ~ ~ ~ ",
"'.oX'.'.^.XXXXrX8X8XyX8X8X8X0XrX9X9XGX,.,.>.<.b.v.<XoX$X#X3X3X7X3X4X$X2X>X[.LXT X.| *.*.| X.kX[.}.|.+X+X%X$X$X#X$X%XiX! ! Q } Q ",
"j.N.n._.!.XXt.].S.P.(.S.S.].].].A.@XKXB.n.N.!.!.G.[.e.y.c.P.P.P.G.G.P.L.P.].OXm.b.N.N.N.B.j.MXl.c.c.c.P.M.P.P.K.}.}.VXn.N.m.m.B.",
"u y r j n i l.l.z.D.D.c.D.A.Z.S.S.D.KXw w 5 2 e w X.] r.d.y.0.t.z.c.l.u.x.y.].* 3 3 w 3 @ 6 KX5.e.e.e.8.7.5.5.e.e.8.0XO & 3 3 3 ",
"%.>.>.>.-.>.rXhXnXnXbXiXyXmXNXvXlXlXPXQ Q ! Q Q ! fX>XpXiXiXjXlXjXvXyXvXbXhXVXn N N n N u B vXuXtX0XrXtXpXvXtXpXvXzXrXt N u m p ",
"G._.G._._._.>XlXnXnXmXMXMXmXAXNXAXBXKXm.x.x.b.B.B.$XK.nXlXlXnXlXbXzXDXSXMXMXDXj.j.k.l.j.j.x.KXpXiXzXzXAXgXgXvXzXmXMXgX>.X.-.-.j.",
"j.j.b.b.b.b.b.XX/.Q.W.v.Q.zX^.^./.!.GX( [ [  . .[ [.M.7X| { ^ Q } HXF.:.-.$.CX! Q R W W ( o.AXR R T R N N AXR E Q R fXN ! A A Z ",
"!.Q.!.!.!.!.b.:X=X^.).XX^.zX^.^.^./.HX$.>.>.>.O.O.oXoXcXW.<.;.:.#.HX;.=.%.o.AX^ { | | |  .-.HXE #.:.[ n W SXT E ^ T fXZ ( ( ( [ ",
"Q._.Q._.n.!.j.-X&XXX^.^.!.zX^.).).n.GXo.X.*.=.>.*.-XXXZX:.:.:.:.:.HX=.:.%.| AX( [ [ | ( | X.DX! ^ E S n ( ZX^ E T ! <XT ! ! ! Q ",
"_.~.~.~.~.~.>.O.^.W./.~.^.zX^.~.).W.JX| &.%.=.>.%.;X[.zXy.n.;.;.&.HX=.@.&.&.CX! ! | / ! / >.CX[ -.^ ' e } AXR T T ! cXN ! ! ! ^ ",
"Q.~.~.~.~.~.j.-.[ W.).~.!.zXQ.~.~./.JX$.$.=.=.=.*.;XXXAXi X =.#.%.KX#.;.&.^ CX! ^ ! ! / } >.MXR W o.0.x W SXR j.-.{ <XN T ! Q ! ",
"Q.`.R._.Q.^.B.j.3 XX/././.zXQ./.~./.JX$.*.=.*.*.*.oXoXkXj.X b.#.$.DXp #.b.{ SXR ! ( | | !  .lX( A i F v ` DXX 0 5 3 <X! E H u N ",
"B B p T Q.!.j.M.l.M.x.M.S.S.l.oX!.].KXR p u r q i @Xx.j.k.t.0.9.X.S.9.M.m.F.eXt u i u Q  . .VX..8.` 4.0.0...a.s.k.j.rXB T y m.y ",
"H H u ! ( N.# s c c x G D a b V F ( DXX.B C H H m $Xz A c c h c L l F v v x ` r u B Z Q H O.pXh h h h l k v g d c d ,XC H ..x.9 ",
"G ( | u j >.5.z.H.H.L.H.1XS.S.A.U.M.DXn M C H m B +X9.M.U.V.V.V.z.C.C.a.A.A.@Xt V Z m H H ..sXi.e.e.u.D.D.0.i.d.z.y.%XZ ! H...d ",
"H  . .N M u ] M.Y.}.}.}.}. XY.}.{.|.DXr u z j j y L.c.t.J.P.I.L.L.L.I.I.L.[.iX8 j x j g x ..bXP.L.L.L.L.G.H.P.H.J.P.>Xt z z H x ",
"H ( A x j z ] A.Y.Y.{.I.Y.Y.I.L.L.}.MXr y 9 i y y @XM.0.H.H.H.J.H.P.J.H.J.L.iXq t t g g z ( pXc.L.C.C.H.H.P.C.H.H.U.qXy g 0 g t ",
"O.] O.y.j.y.F a.i.i.a.i.r.i.i.a.u.k.KXj. ...X...8.k.' _ 5.6.i.w.i.r.u.f.e.c.P...`  .] ....] lX5.] 6.5.6.6.6.e.w.r.y.0X` K ( )  .",
"q q 2 2 < < ' C.H.H.c.d.d.z.d.z.d.y.PX* < < 3 < # 8.F x.V.V.a.z.z.U.i.V.c.k. X@ @ > < < 8 j VXk.a.z.y.y.z.A.c.H.P.a.+XO > > ; % ",
"n p u p j i D.uXpXtXwXpXtXpXtXyXpXrXxXp r p r r j m.k. XwXwXqX3XqXtXqXwXpX>XlX& r w w 3 y g qX2X4X2X0XtX9X0X8X4X0X0XoXi j w w w ",
" .`  .' ` F.j.6X7XwXqX0XqX XuX9XyX8XVX[ ( ( ` ) ` M.8.].+X>XqX8X$X$XqXpXqXpX%X..` ` ` o.` ..FX3X3X3X>X0XhX0X+XOX7XrX+XA  .F G ( ",
"C A A F F R R F.- , O + < pXk F F $ MXz B C V S J N.0.0XO O < > % jX% & o O iX2 j j g x j V FX  . ; y ` A DXo o o # +Xj x g j y ",
"A ( W ' W W F (.2.a ) P v qXd l v b VXm M C G A S M.N.pX& % , e O lX. > 2 > iXr g n M M M S MX. # % @ % , gXo - + o 8Xy y j x u ",
"V A G S V V ' k.4.D 2.q._ bXk h D 6 nXg z M M B x N.N.0X= X X .   MXX O & > iX8 g z u m M Z kX  .         gX$ , - - +Xy j g j x ",
"Z ! J A A A ( j.W F I F ' vXF U F D nXj M B M B B S.m.eX= # > < . FX# < < 9 hX8 y u y j M H kX  @ # O O ; MX$ , 1 9 ;Xj u g z j ",
"Z A G A A V o.o., , d 7 6 wX7 F D 6.BXg m z n n M S.M.rX3 > 3 2 X PX# > % r hXq y u t u m Z kX  .     O > DX, 5 g k +Xj y g x t ",
"C H G G n A W F., 6 e 6 e 6XU s.g.D.BXj u j y M j m.M.gX% > # 6   PX1 4 < j hXj 8 u t y x ( hX  3 w   t 4 MX6 v ; , +Xj r 0 z y ",
"S H G G z B ' DXvXvXvXyXyX6X_ Z.f._ nXj j u M x y k.K.qX@X|.3X9X2XyXd - % 1 PXz 8 y y y g J iXtXtXyX$X4XwXMX4 : , s 9Xr 8 9 z y ",
"S S J S y y d v v l h l h h s s l h lXu r r t y C N.J v h a l l l l l c c g ] q 1 8 q 9 t F 8Xd g d c s l s a 0 0 0 @Xt t j x 8 ",
"A A A V t y v ] 6.q.u.r.q.u.i.u.h.l.FXr 2 r r 8 y c.) K ] w.u.6.f.w.w.w.e.i.}.8 8 9 y z y J yXU 3.4.e.w.e.f.i.w.e...%X8 t g z x ",
"g g g r y t L ] Z.V.Z.Z.s.g.h.D.D.x.nX> 3 t t 2 < y.] P a.a.z.Z.V.H.H.d.d.d.pX9 y C C x y C tX6.u.i.s.d.s.s.d.d.i.d.%X9 x g g S ",
"0 0 0 9 9 g P r.l.D.p.l.C.z.c.V.Z.{.iX2 < 0 e t 5 t.w.P i.i.Z.p.p.i.i.i.i.V.qXO 1 0 8 1 1 c yX7.Z.l.w.f.d.i.e.w.i.a.S.r 3 8 g 0 ",
"y.X.y...X...b 5.7.7.q.6.r.6.6.7.w.5.MX9.X.9...X.X.k.v P 3.1.3.7.7.3.3.f.5.r.c...`  .....` K 5X2.6.5.I I I I 3.3.5.r.7X9...` X.9.",
"2 2 2 > < ; S i.C.Z.a.d.d.p.d.s.d.V.BX, = > = 3 = W J r.g.V.5.p.z.z.p.V.s.c.M.. & O % * * 9 pXp.g.d.i.d.g.s.s.z.a.z.{.# 3 % > % ",
"t t 8 t 8 2 ) C..X1X4XuX1X.X2X5X4XsXmX2 3 , 3 3 , 8.8.A.4X1X2X2XI.|.4X1X.XqX X& o > > % q x 9XZ.U.Y..X XY..X4X}.}. X[.6 5 < 2 > ",
"a.c.G.G.N.x.( .X3X3X2XwXwX1X8XuX2XL.FXN.m.x.c.x.S.N.K k.uX4XOX2X7X{.uX4X4XOX[.j.X.x.c.j.j.' 2X.XU. X X2XJ..X4X X X{.0X9.l.x.x.j.",
"0 q : 1 , < x {.].{.2X X{.S.$ 6 7 4 bX4 ; : 4 1 > ( ) Y.{.{..X].S..X- 6 ; + [.+ + ; 1 , , , wXS.S.U.U.].{.].d 6 o : +X, > ; < ; ",
"z C C z x y V ' : 5 , l $ 3Xo 6 , , lXr e e t y y k. .3X- 6 6 6 + vX: + $ $ 3X< q t g g t S pXo $ $ $ 3 5 pX  o -   ].5 q 8 8 9 ",
"g x x c v t V ` 6 g 5 V . OX# e t , lXe 5 r t i y x.] yX$ $ o $ $ vXj g ; : 3X8 8 9 t y t S tX  7 - ; - + tX+ 4 r t OXt 8 y r y ",
"g j j j g g ( ( O o # o o 0X. . +   hX< e e r r r x.8.7X$ - - o o nXo 7 d 4 wX1 9 t t t w A 0X  + o o . . vX, 4 + + |.t 8 y 8 y ",
"g g j j g g F ` # o @ @ # 0X@ # #   iX2 2 r r r t j.9.9X@ - 6 l o MX- 7 7 : uX> 8 y t y e F eXo # - - o 2 vX: 0 o $ [.2 8 y 8 8 ",
"9 y y y r e F ` O @ O   . 7X. > +   iX2 5 2 q q 9 k.] 3X- 7 7 b 7 sXF 7 b 6 uX< 1 t 9 j e W 7X; ; 6 0 Y F aXf f 0 : K.8 8 y q 8 ",
"y 8 y r t t W bXpXyXyXwXsX3X. - + - nX2 2 < < q 9 t.0.7XwXyXaXyXaXsXH.f D _ 5X< 2 M 5 r t W eXyXuXuXuXuXuX4Xa.H.7.s |.r 2 8 q 8 ",
"t e t y 4 5 6 d f f s a f f s s b l 0X1 < < < 0 6 A.6 a a a a f a f a a d 6 F , 2 j 2 2 2 A |.4 l a s f a s a b b f |.< r q < 1 ",
"r 5 r r 2 5 a F I 1.3.3.1.2.1.2.3.5.uX1 > > % 0 9 C.b l F 1.1.1.1.F 7.I U U .X; 3 j 2 2 2 V [.L Y Y P P I I Y 3.I Y K.q < 1 % < ",
"2 5 2 , 3 , b F 7.7.q.7.7.6.7.7.3.e.0X< 2 % % 0 8 z.F F 1.1.7.7.3.3.3.3.2.2.{.- < % * 3 2 S 3XL Y Y 3.1.7.3.1.3.I 4.K.& & < < < ",
"r e 2 2 5 3 k F 1.3.q.7.6.5.7.q.6.6.4X< > < < q 2 0.l D 1.1.1.7.3.2.2.7.3.7.{.e O 3 > > 2 x 8XF L Y I I I 3.2.1.K ) N.% < % % ; ",
"@ # @ = > > d F 3.3.] 3._ _ _ P P 5.3XO @ O # = # 8.g h 1.F 1.F 1.1.1.3._ 2.{.  # @ X @ o V 6Xv D D L U 3.3.2.7.) 8.x.@ & O O & ",
"# - # % = - F 2.q.6.u.f.u.i.u.i.a.r.wX- O + # # - ' b I f.f.f.f.2.7.7.q.0.' l.. o @ @ = @ - 1X_ _ 4.1.3.7.7.1.3.4.K S.; . & O O ",
", 2 , 3 - , I D.Z.U.U.U.U.U.U.U.U.I.2X= o O * # - 0.b 4.Z.Z.Z.Z.Z.Z.S.U.1XA..X# # @ @ = X , 1X6.u.Z.V.Z.g.Z.Z.Z.J.U.M.O + O & % ",
"@X[.(.l.j.t.l.h.V.D.D.p.g.a.6.u.6.6.t.l.x.c.M.(.S.2.F U 7.7.p.f.g.Z.p.D.q.q.` k.l.m.B.B.j.k.u.h.u.f.u.6.u.p.Z.Z.z.D.0.j.x.G.M.G."
};
