/* XPM */
static char *aaasdaasdddxpmseda_3_png1707577089[] = {
/* columns rows colors chars-per-pixel */
"64 64 14 1 ",
"  c None",
". c #493015",
"X c #5A3C1B",
"o c #5A3F21",
"O c #5C452B",
"+ c #604F3C",
"@ c #675B4E",
"# c #726A62",
"$ c #EBBF86",
"% c #C6C1BC",
"& c #FFC0AD",
"* c #E6E2DD",
"= c #FFF2E6",
"- c white",
/* pixels */
"                                                                ",
"                                                                ",
"                            .........                           ",
"                         ...XXXXXXXXX...                        ",
"                       ..XXXXXXXXXXXXXXX.                       ",
"                      .XXXXXXXXXXXXXXXXoo.                      ",
"                    .XXooooooooXXoooooooXoo.                    ",
"                    .oooooooooooooooooooXXoo                    ",
"                   .oooooOooOOOOOOOOOOOOOOooX                   ",
"                  .ooooooOOoOOOOOOOOOOOOOOXX.                   ",
"                  .ooooo.OOOOOOOOOOOOOOOOOOXO.                  ",
"                  .oooOO.OO+++++.+++++++.OOOO.                  ",
"                  .OOOOO.OO++++.++++++@..OOOO.                  ",
"                  .OOOOO.++++++.@@@++@@..OOOO.                  ",
"                  .OOOOO.++++++.@@@@@@.=.OOOO.                  ",
"                  .OOOOO.+..==============..O.                  ",
"                  .OOOOO.+.=...========...$.+.                  ",
"                  .OOOOO.+.=..-========.....+.                  ",
"                  .OOOOO.+.=...========...$.+.                  ",
"                  .OOOOO.@.&.--========.-.&.+.                  ",
"               ....OOOOO.@.&&..=========.&&.+.  ..              ",
"               .+..OOO+O..=======...======.+#.....              ",
"               .++.OO++O...======&&.======.+#..++..             ",
"               ..+++O+++.. ..====..======.++#.++@@.             ",
"               .@+++++++...    ==.......+++++++@@..             ",
"               .@@++++++.  .   ==.     .++++++@@..              ",
"               .@@@++++..  .---==.---.  ..@@@@@..               ",
"               ..@@++.. . .*.--..---.*.   ......                ",
"                ......  ..***.--.--.***.                        ",
"                        .-------..------                        ",
"                        .-------%-------.                       ",
"                        .*--*--%%--%%--..                       ",
"                        ..***%*%*%%%**..*.                      ",
"                        ..*****..*..*..--.                      ",
"                        ...---..-..-..--..                      ",
"                        .-..-.---*.*-.-*..                      ",
"                        .--..---**.*--**.                       ",
"                        .--**--**...***..                       ",
"                        .----**......*...                       ",
"                        ...--...----...*.                       ",
"                         .....--------**.                       ",
"                          .***--------**.                       ",
"                          .**----------*.                       ",
"                          .**----------*....                    ",
"                       . ..*---------------.                    ",
"                       ....---------------..                    ",
"                       .------*****-----...                     ",
"                       .---****....---**.                       ",
"                       ...-*....  ...**..                       ",
"                         ...         ...                        ",
"                                                                ",
"                                                                ",
"                                                                ",
"                                                                ",
"                                                                ",
"                                                                ",
"                                                                ",
"                                                                ",
"                                                                ",
"                                                                ",
"                                                                ",
"                                                                ",
"                                                                ",
"                                                                "
};
