/* XPM */
static char *door11707831868[] = {
/* columns rows colors chars-per-pixel */
"64 64 24 1 ",
"  c black",
". c #191B1A",
"X c #292E2D",
"o c #393023",
"O c #2F3B3A",
"+ c #353939",
"@ c #363D3C",
"# c #532707",
"$ c #68330C",
"% c #484136",
"& c #534837",
"* c #624924",
"= c #363941",
"- c #3C404C",
"; c #444A4A",
": c #404553",
"> c #454955",
", c #4A4F5D",
"< c #455553",
"1 c #868F59",
"2 c #A3B352",
"3 c #898F6C",
"4 c #959391",
"5 c gray",
/* pixels */
"................................................................",
"................................................................",
"......####################################################X.....",
"......$$$$$$$$$$$$$$$$$$$$$$$$$$$$$$$$$$$$$$$$$$$$$$$$$$$$X.....",
"....########################################################....",
"....$$$$$$$$$$$$$$$$$$$$$$$$$$$$$$$$$$$$$$$$$$$$$$$$$$$$$$$$XX..",
"..############################################################..",
"..$$$$$$$$$$$$$$$$$$$$$$$$$$$$$$$$$$$$$$$$$$$$$$$$$$$$$$$$$$$$X.",
"##$$$$$$$$$$$$$$$$$$$$$$$$$$$$$$$$$$$$$$$$$$$$$$$$$$$$$$$$$$$$##",
"#55555555555555555555555555555555555555555555555555555555555555#",
"4444444444444444444444444444444444444444444444444444444444444444",
"Xooooo****************************************************ooooo;",
"@oooooooooooooooooooooooooooooooooooooooooooooooooooooooooooooo;",
"@ooooooooooooooooooo                        ooooooooooooooooooo;",
"@ooo**************** 1122222222222222111111 ****************ooo;",
"@oo***************** 1112233222223322221331 *****************oo;",
"@ooooooooooooooooooo 3311223332222333222131 ooooooooooooooooooo;",
"@ooooooooooooooooooo 1333112223322223332213 ooooooooooooooooooo;",
"Xoo***************** 1111331222222222222211 *****************oo;",
"Xoo*****************                        *****************oo;",
"@oo**********************************************************oo;",
"@oooooooooooooooooooooooooooooooooooooooooooooooooooooooooooooo;",
"@oooooooooooooooooooooooooooooooooooooooooooooooooooooooooooooo;",
"+oo**********************************************************oo;",
"+oo**********************************************************oo;",
";oo**********************************************************oo;",
";oooooooooooooooooooooooooooooooooooooooooooooooooooooooooooooo;",
";oooooooooooooooooooooooooooooooooooooooooooooooooooooooooooooo;",
";oo**********************************************************oo;",
";oo**********************************************************oo;",
";oo**********************************************************oo;",
";oooooooooooooooooooooooooooooooooooooooooooooooooooooooooooooo;",
";oooooooooooooooooooooooooooooooooooooooooooooooooooooooooooooo;",
";oo**********************************************************oo;",
";oo**********************************************************oo;",
";oo**********************************************************oo;",
";oooooooooooooooooooooooooooooooooooooooooooooooooooooooooooooo;",
";oooooooooooooooooooooooooooooooooooooooooooooooooooooooooooooo;",
";oo**********************************************************oo;",
";oo**********************************************************oo;",
":oo**********************************************************oo:",
":oooooooooooooooooooooooooooooooooooooooooooooooooooooooooooooo:",
"-oooooooooooooooooooooooooooooooooooooooooooooooooooooooooooooo-",
">oo**********************************************************oo>",
">oo**********************************************************oo>",
">oo**********************************************************oo>",
">oooooooooooooooooooooooooooooooooooooooooooooooooooooooooooooo>",
",oooooooooooooooooooooooooooooooooooooooooooooooooooooooooooooo,",
"=oo**********************************************************oo=",
"=oo**********************************************************oo=",
"<oo**********************************************************oo<",
"<oooooooooooooooooooooooooooooooooooooooooooooooooooooooooooooo<",
"<ooooooooooooooooooooooooooooooooooooooooooooooooooooooooooooooO",
"<oo**********************************************************oo<",
"<oo**********************************************************oo<",
"<oo**********************************************************oo<",
"<oooooooooooooooooooooooooooooooooooooooooooooooooooooooooooooo<",
"<oooooooooooooooooooooooooo%%%%%%%%%%%ooooooooooooooooooooooooo<",
"<oo************************%&&&&&&&&&%***********************oo<",
"+oo************************%&&&&&&&&&%***********************oo+",
"+oo************************%&&&&&&&&&%***********************oo+",
"+oooooooooooooooooooooooooooooooooooooooooooooooooooooooooooooo+",
"+oooooooooooooooooooooooooooooooooooooooooooooooooooooooooooooo+",
"+oo**********************************************************oo+"
};
