/* XPM */
static char *New_Piskel_1_png__5_1708393121[] = {
/* columns rows colors chars-per-pixel */
"64 64 11 1 ",
"  c None",
". c #222524",
"X c #292C2B",
"o c #292E2D",
"O c #353939",
"+ c #444A4A",
"@ c #5C4A42",
"# c #657E79",
"$ c #A0BAB5",
"% c #9DD9D0",
"& c #CDDFDC",
/* pixels */
"%%%%%%%%%%%%%%%%%%%%%%%%%%%%%%%%%%%%%%%%%%%%%%%%%%%%%%%%%%%%%%%%",
"%%%%%%%%%%%%%%%%%%%%%%%%%%%%%%%%%%%%%%%%%%%%%%%%%%%%%%%%%%%%%%%%",
"%%%%%%%%%%%%.%%%%%%%%%%%%%%%%..%%%%%%%%%%%%%%%..%%%%%%%%%oo%%%%%",
"%%%%%%%%%%%..%%%%%%%%%%%%%%%...%%%%%%%%%%%%%%...%%%%%%%%ooo%%%%%",
"%%%%%%%%%%%.#.%%%%%%%%%%%%%%.#.%%%%%%%o%%%%%%.#..%%%%%%%o$$o%%%%",
"%%%%%%%%%%..#..%%%%%%%%%%%%%.##.%%%%oooo%%%%%.##.%%%%%%o$$$$oo%%",
"%%%%%%%%...###..%%%oo%%%%%%%.##..%%%o$$o%%%%..##..%%%ooo$$$$$o%%",
"%%%%%%%..######.%%%ooo%%%%%.####.%%%o$$oo%%%.####.%%%ooo$$$$$$o%",
"%o%%%%%.########..%%oooo%%..####...%o$$$o%%..####....$$$$$$$$$o%",
"oo%%%%.##########..o$$oo%%.######oo.o$$$o..#######ooo$$$$$$$$$Oo",
"$$o%%.############oo$$$o%.#######o$o$$$$oo########o$$$$$$$$$OOOo",
"$$o%%.###########Xoo$$$o%.######o$$$$$$$$o########o$$$$$$$$$O&&&",
"$$$o.############o$$$$$ooo######o$$$$$$$$o########o$$$$$$$$OO&&&",
"$$$$o##########ooo$$$$$$oo######o$$$$$$$$oo#######o$$$$$OOOOO&&&",
"$$$o###########o$$$$$$$$o######o$$OO$$$$$$oo######o$$$$$O&&&&&&&",
"$$$oo#########o$$$$$$$$$o#####OOOO&&O$$$$$oo######o$OOOO&&&&&&&&",
"$$$$o#########o$$$$$$$$$oo#oOO&&&&&&OOO$$$oo#####Xo$O&O&&&&&&&&&",
"$$$$$oo#####ooo$$$$$$$$$$o#O&&&&&&&&O&&OO$$o####OOOO&&&&&&&&&&&&",
"$$$$$$o####o$$$$$$$$$$$$$OOO&&&&&&&&&&&&&O$oo###O&O&&&&&&&&&&&&&",
"$$$$$$$o###o$$$$$$$$$$$$O&&&&&&&&&&&&&&&&OOOo##O&&&&&&&&&&&&&&&&",
"$$$$$$$o##o$$$$$$$$$$$$$O&&&&&&&&&&&&&&&&&&&O##O&&&&&&&&&&&&&&&&",
"$$$$$$$o##o$$$$$$$$$$$OO+O&&&&&&&&&&&&&&&&OOO#O&&&&&&&&&&&&&&&&&",
"$$OOO$$oOOOO$$$$$$$$$O&&OO&&&&&&&&&&&&&&&&&&OOO&&&&&&&&&&&&&&&&&",
"OOO&OOOOO&&O$$$$$$$$$O&&&&&&&&&&&&&&&&&&&&&&&OO&&&&&&&&&&&&&&&&&",
"O&&&&&&&&&&O$$$$$$$$$O&&&&&&&&&&&&&&&&&&&&&&&OO&&&&&&&&&&&&&&&&&",
"&&&&&&&&&&&&O$OO$$$$OO&&&&&&&&&&&&&&&&&&&&&&&&O&&&&&&&&&&&&&&&&&",
"&&&&&&&&&&&&OO&O$$$OO&&&&&&&&&&&&&&&&&&&&&&&&&O&&&&&&&&&&&&&&&&&",
"&&&&&&&&&&&&&&&O$$$O&&&&&&&&&&&&&&&&&&&&&&&&&OO&&&&&&&&&&&&&&&&&",
"&&&&&&&&&&&&&&&OO$OO&&&&&&&&&&&&&&&&&&&&&&&&&&&OO&&&&&&&&&&&&&&&",
"&&&&&&&&&&&&&&&&&OO&&&&&&&&&&&&&&&&&&&&&&&&&&&&&O&&&&&&&&&&&&&&&",
"&&&&&&&&&&&&&&&&&O&&&&&&&&&&&&&&&&&&&&&&&&&&&&&&O&&&&&&&&&&&&&&&",
"&&&&&&&&&&&&&&&&&O&&&&&&&&&&&&&&&&&&&&&&&&&&&&&OO&&&&&&&&&&&&&&&",
"&&&&&&&&&&&&&&&&&O&&&&&&&&&&&&&&&&&&&&&&&&&&&&&&O&&&&&&&&&&&&&&&",
"&&&&&&&&&&&&&&&&&O&&&&&&&&&&&&&&&&&&&&&&&&&&&&&&OO&&&&&&&&&&&&&&",
"&&&&&&&&&&&&&&&&&&O&&&&&&&&&&&&&&&&&&&&&&&&&&&&&&O&&&&&&&&&&&&&&",
"&&&&&&&&&&&&&&&&&&O&&&&&&&&&&&&&&&&&&&&&&&&&&&&&&&O&&&&&&&&&&&&&",
"&&&&&&&&&&&&&&&&&&&O&&&&&&&&&&&&&&&&&&&&&&&&&&&&&&O&&&&&&&&&&&&&",
"&&&&&&&&&&&&&&&&&&O&&&&&&&&&&&&&&&&&&&&&&&&&&&&&&&O&&&&&&&&&&&&&",
"&&&&&&&&&&&&&&&&&&O&&&&&&&&&&&&&&&&&&&&&&&&&&&&&&&O&&&&&&&&&&&&&",
"&&&&&&&&&&&&&&&&&O&&&&&&&&&&&&&&&&&&&&&&&&&&&&&&&&O&&&&&&&&&&&&&",
"&&&&&&&&&&&&&&&&OO&&&&&&&&&&&&&&&&&&&&&&&&&&&&&&&&O&&&&&&&&&&&&&",
"&&&&&&&&&&&&&&&&OO&&&&&&&&&&&&&&&&&&&&&&&&&&&&&&&&O&&&&&&&&&&&&&",
"&&&&&&&&&&&&&&&&OO&&&&&&&&&&&&&&&&&&&&&&&&&&&&&&&&O&&&&&&&&&&&&&",
"&&&&&&&&&&&&&&&&OO&&&&&&&&&&&&&&&&&&&&&&&&&&&&&&&&O&&&&&&&&&&&&&",
"&&&&&&&&&&&&&&&&&OO&&&&&&&&&&&&&&&&&&&&&&&&&&&&&&&O&&&&&&&&&&&&&",
"&&&&&&&&&&&&&&&&&&O&&&&&&&&&&&&&&&&&&&&&&&&&&&&&&O&&&&&&&&&&&&&&",
"&&&&&&&&&&&&&&&&&&OO&&&&&&&&&&&&&&&&&&&&&&&&&&&&OO&&&&&&&&&&&&&&",
"&&&&&&&&&&&&&&&&&&&O&&&&&&&&&&&&&&&&&&&&&&&&&&&&O&&&&&&&&&&&&&&&",
"&&&&&&&&&&&&&&&&&&&O&&&&&&&&&&&&&&&&&&&&&&&&&&&OO&&&&&&&&&&&&&&&",
"&&&&&&&&&&&&&&&&&&&O&&&&&&&&&&&&&&&&&&&&&&&&&&OO&&&&&&&&&&&&&&&&",
"&&&&&&&&&&&&&&&&&&&OO&&&&&&&&&&&&&&&&&&&&&&&&&O&&&&&&&&&&&&&&&&&",
"&&&&&&&&&&&&&&&&&&&&O&&&&&&&&&&&&&&&&&&&&&&&&&O&&&&&&&&&&&&&&&&&",
"&&&&&OOOO&&&&&&&&&&OO&&&&&&&&&&&&&&&&&&&&&&&&&OOOOO&&&&&&&&&&&&&",
"OOOOOOOOOOOO&&&&&&&&&OO&&&&&&&&&&&&&&&&&&&&&OOO    OOO&&&&&&O&&&",
"    OO@@OOO&&&&&&&&&&OOO&&&&OOOOO&&&&&&OOOOOO        OOOOOOOOOOO",
"    O@@@@@@OOOOOOOOOOOOOOOOOOO@@OOOOOOO                 O@@@O   ",
"    O@@@@@@OO               O@@@@@O                     O@@@O   ",
"   OO@@@@@@@O               O@@@@@OO                    O@@@O   ",
"  OO@@@@@@@@OO             O@@@@@@@O                    O@@@@O  ",
"  O@@@@@@@@@@O             O@@@@@@@OO                  OO@@@@OO ",
"   OOOOOOOOOOO             O@@@@@@@@O                  O@@@@@OO ",
"                           OOOOOOOOO                   OOOOOOO  ",
"                                                                ",
"                                                                "
};
